<?xml version="1.0" encoding="utf-8"?>
<!-- Generator: Adobe Illustrator 16.2.1, SVG Export Plug-In . SVG Version: 6.00 Build 0)  -->
<!DOCTYPE svg PUBLIC "-//W3C//DTD SVG 1.1//EN" "http://www.w3.org/Graphics/SVG/1.1/DTD/svg11.dtd">
<svg version="1.1" xmlns="http://www.w3.org/2000/svg" xmlns:xlink="http://www.w3.org/1999/xlink" x="0px" y="0px" width="1440px"
	 height="864px" viewBox="0 0 1440 864" enable-background="new 0 0 1440 864" xml:space="preserve">
<g id="MAIN" display="none">
	<g id="CIRCLE_15_" display="inline">
		
			<path fill="none" stroke="#000000" stroke-width="0.001" stroke-linecap="round" stroke-linejoin="round" stroke-miterlimit="10" d="
			M620.91,322.359c-2.984,0-5.401,2.418-5.401,5.4c0,2.982,2.417,5.4,5.401,5.4c2.981,0,5.398-2.417,5.398-5.4
			C626.308,324.777,623.891,322.359,620.91,322.359L620.91,322.359z"/>
	</g>
	<g id="CIRCLE_17_" display="inline">
		
			<path fill="none" stroke="#000000" stroke-width="0.001" stroke-linecap="round" stroke-linejoin="round" stroke-miterlimit="10" d="
			M41.949,323.635c-2.982,0-5.4,2.418-5.4,5.4c0,2.982,2.418,5.4,5.4,5.4s5.4-2.417,5.4-5.4
			C47.349,326.053,44.932,323.635,41.949,323.635L41.949,323.635z"/>
	</g>
	<g id="LINE_1705_" display="inline">
		
			<line fill="none" stroke="#000000" stroke-width="0.001" stroke-linecap="round" stroke-linejoin="round" stroke-miterlimit="10" x1="13.875" y1="329.035" x2="13.875" y2="40.296"/>
	</g>
	<g id="LINE_1707_" display="inline">
		
			<line fill="none" stroke="#000000" stroke-width="0.001" stroke-linecap="round" stroke-linejoin="round" stroke-miterlimit="10" x1="619.183" y1="357.381" x2="42.221" y2="357.381"/>
	</g>
	<g id="LINE_1710_" display="inline">
		
			<line fill="none" stroke="#000000" stroke-width="0.001" stroke-linecap="round" stroke-linejoin="round" stroke-miterlimit="10" x1="647.53" y1="40.296" x2="647.53" y2="329.035"/>
	</g>
	<g id="LINE_1712_" display="inline">
		
			<line fill="none" stroke="#000000" stroke-width="0.001" stroke-linecap="round" stroke-linejoin="round" stroke-miterlimit="10" x1="42.222" y1="11.95" x2="621.183" y2="11.95"/>
	</g>
	<g id="ARC_7_" display="inline">
		
			<path fill="none" stroke="#000000" stroke-width="0.001" stroke-linecap="round" stroke-linejoin="round" stroke-miterlimit="10" d="
			M13.875,329.035c0,15.655,12.691,28.347,28.347,28.347"/>
	</g>
	<g id="ARC_8_" display="inline">
		
			<path fill="none" stroke="#000000" stroke-width="0.001" stroke-linecap="round" stroke-linejoin="round" stroke-miterlimit="10" d="
			M42.221,11.95c-15.655,0-28.347,12.691-28.347,28.346"/>
	</g>
	<g id="ARC_9_" display="inline">
		
			<path fill="none" stroke="#000000" stroke-width="0.001" stroke-linecap="round" stroke-linejoin="round" stroke-miterlimit="10" d="
			M647.53,40.296c0-15.655-12.691-28.346-28.348-28.346"/>
	</g>
	<g id="ARC_10_" display="inline">
		
			<path fill="none" stroke="#000000" stroke-width="0.001" stroke-linecap="round" stroke-linejoin="round" stroke-miterlimit="10" d="
			M619.183,357.381c15.656,0,28.348-12.691,28.348-28.347"/>
	</g>
	<g id="CIRCLE_22_" display="inline">
		
			<path fill="none" stroke="#000000" stroke-width="0.001" stroke-linecap="round" stroke-linejoin="round" stroke-miterlimit="10" d="
			M47.615,40.296c0-2.982-2.417-5.4-5.4-5.4s-5.4,2.417-5.4,5.4s2.418,5.4,5.4,5.4S47.615,43.278,47.615,40.296L47.615,40.296z"/>
	</g>
	<g id="CIRCLE_4_" display="inline">
		
			<path fill="none" stroke="#000000" stroke-width="0.001" stroke-linecap="round" stroke-linejoin="round" stroke-miterlimit="10" d="
			M626.582,40.296c0-2.982-2.417-5.4-5.4-5.4s-5.4,2.417-5.4,5.4s2.417,5.4,5.4,5.4S626.582,43.278,626.582,40.296L626.582,40.296z"
			/>
	</g>
	<g id="LINE_302_" display="inline">
		
			<line fill="none" stroke="#FF0000" stroke-width="0.001" stroke-linecap="round" stroke-linejoin="round" stroke-miterlimit="10" x1="60.314" y1="319.643" x2="60.017" y2="319.94"/>
	</g>
	<g id="LINE_309_" display="inline">
		
			<line fill="none" stroke="#FF0000" stroke-width="0.001" stroke-linecap="round" stroke-linejoin="round" stroke-miterlimit="10" x1="60.314" y1="48.961" x2="60.017" y2="48.665"/>
	</g>
	<g id="LINE_438_" display="inline">
		
			<line fill="none" stroke="#FF0000" stroke-width="0.001" stroke-linecap="round" stroke-linejoin="round" stroke-miterlimit="10" x1="204.756" y1="54.421" x2="203.917" y2="54.05"/>
	</g>
	<g id="LINE_449_" display="inline">
		
			<line fill="none" stroke="#FF0000" stroke-width="0.001" stroke-linecap="round" stroke-linejoin="round" stroke-miterlimit="10" x1="603.122" y1="48.961" x2="603.418" y2="48.665"/>
	</g>
	<g id="LINE_473_" display="inline">
		
			<line fill="none" stroke="#FF0000" stroke-width="0.001" stroke-linecap="round" stroke-linejoin="round" stroke-miterlimit="10" x1="603.122" y1="319.643" x2="603.418" y2="319.94"/>
	</g>
	<g id="LINE_653_" display="inline">
		
			<line fill="none" stroke="#FF0000" stroke-width="0.001" stroke-linecap="round" stroke-linejoin="round" stroke-miterlimit="10" x1="582.624" y1="72.285" x2="582.868" y2="73.75"/>
	</g>
	<g display="inline">
		
			<circle fill="none" stroke="#000000" stroke-width="0.001" stroke-linecap="round" stroke-linejoin="round" stroke-miterlimit="10" cx="405.906" cy="23.604" r="4.32"/>
		
			<circle fill="none" stroke="#000000" stroke-width="0.001" stroke-linecap="round" stroke-linejoin="round" stroke-miterlimit="10" cx="356.225" cy="23.604" r="4.32"/>
		
			<circle fill="none" stroke="#000000" stroke-width="0.001" stroke-linecap="round" stroke-linejoin="round" stroke-miterlimit="10" cx="400.146" cy="112.165" r="4.32"/>
		
			<circle fill="none" stroke="#000000" stroke-width="0.001" stroke-linecap="round" stroke-linejoin="round" stroke-miterlimit="10" cx="361.985" cy="112.165" r="4.32"/>
	</g>
	
		<line display="inline" fill="none" stroke="#000000" stroke-width="0.001" stroke-linecap="round" stroke-linejoin="round" stroke-miterlimit="10" x1="375.146" y1="116.485" x2="386.896" y2="116.485"/>
	<g display="inline">
		
			<line fill="none" stroke="#000000" stroke-width="0.001" stroke-linecap="round" stroke-linejoin="round" stroke-miterlimit="10" x1="343.646" y1="101.589" x2="375.146" y2="101.589"/>
		
			<line fill="none" stroke="#000000" stroke-width="0.001" stroke-linecap="round" stroke-linejoin="round" stroke-miterlimit="10" x1="375.146" y1="101.589" x2="375.146" y2="116.485"/>
		
			<line fill="none" stroke="#000000" stroke-width="0.001" stroke-linecap="round" stroke-linejoin="round" stroke-miterlimit="10" x1="386.896" y1="116.485" x2="386.896" y2="101.589"/>
		
			<line fill="none" stroke="#000000" stroke-width="0.001" stroke-linecap="round" stroke-linejoin="round" stroke-miterlimit="10" x1="386.896" y1="101.589" x2="410.896" y2="101.589"/>
	</g>
	<g display="inline">
		<g id="LWPOLYLINE_6_">
			
				<path fill="none" stroke="#000000" stroke-width="0.001" stroke-linecap="round" stroke-linejoin="round" stroke-miterlimit="10" d="
				M438.773,48.813v31.884c0,2.349-1.904,4.252-4.252,4.252h-7.088c-2.348,0-4.252,1.903-4.252,4.252v172.913
				c0,2.349,1.904,4.252,4.252,4.252h7.088c2.348,0,4.252,1.904,4.252,4.252v7.087c0,2.349,1.902,4.252,4.252,4.252H543.93
				c3.131,0,5.669-2.538,5.669-5.669v-16.441c0-3.131,2.538-5.669,5.669-5.669h12.481c3.131,0,5.669-2.538,5.669-5.669V95.133"/>
			
				<path fill="none" stroke="#000000" stroke-width="0.001" stroke-linecap="round" stroke-linejoin="round" stroke-miterlimit="10" d="
				M522.678,68.48c-2.348,0-4.252-1.903-4.252-4.252V48.961"/>
		</g>
		<g id="CIRCLE_10_">
			
				<path fill="none" stroke="#000000" stroke-width="0.001" stroke-linecap="round" stroke-linejoin="round" stroke-miterlimit="10" d="
				M429.976,278.697c-2.113,0-3.826-1.714-3.826-3.827s1.713-3.826,3.826-3.826s3.828,1.713,3.828,3.826
				S432.089,278.697,429.976,278.697L429.976,278.697z"/>
		</g>
		<g id="CIRCLE_9_">
			
				<path fill="none" stroke="#000000" stroke-width="0.001" stroke-linecap="round" stroke-linejoin="round" stroke-miterlimit="10" d="
				M429.976,80.272c-2.113,0-3.826-1.714-3.826-3.827s1.713-3.827,3.826-3.827s3.828,1.714,3.828,3.827
				S432.089,80.272,429.976,80.272L429.976,80.272z"/>
		</g>
		<g id="LWPOLYLINE_4_">
			
				<path fill="none" stroke="#000000" stroke-width="0.001" stroke-linecap="round" stroke-linejoin="round" stroke-miterlimit="10" d="
				M566.89,278.697c2.114,0,3.827-1.714,3.827-3.827s-1.713-3.826-3.827-3.826h-1.7c-2.113,0-3.827,1.713-3.827,3.826
				s1.714,3.827,3.827,3.827H566.89z"/>
		</g>
	</g>
	
		<line display="inline" fill="none" stroke="#000000" stroke-width="0.001" stroke-linecap="round" stroke-linejoin="round" stroke-miterlimit="10" x1="522.678" y1="68.48" x2="550.827" y2="68.48"/>
	
		<line display="inline" fill="none" stroke="#000000" stroke-width="0.001" stroke-linecap="round" stroke-linejoin="round" stroke-miterlimit="10" x1="550.827" y1="68.48" x2="550.827" y2="90.169"/>
	
		<line display="inline" fill="none" stroke="#000000" stroke-width="0.001" stroke-linecap="round" stroke-linejoin="round" stroke-miterlimit="10" x1="550.827" y1="90.169" x2="573.418" y2="90.169"/>
	
		<line display="inline" fill="none" stroke="#000000" stroke-width="0.001" stroke-linecap="round" stroke-linejoin="round" stroke-miterlimit="10" x1="573.418" y1="95.133" x2="573.418" y2="90.169"/>
	
		<line display="inline" fill="none" stroke="#000000" stroke-width="0.001" stroke-linecap="round" stroke-linejoin="round" stroke-miterlimit="10" x1="343.646" y1="48.813" x2="410.896" y2="48.961"/>
	
		<line display="inline" fill="none" stroke="#000000" stroke-width="0.001" stroke-linecap="round" stroke-linejoin="round" stroke-miterlimit="10" x1="343.646" y1="48.813" x2="343.646" y2="101.589"/>
	
		<line display="inline" fill="none" stroke="#000000" stroke-width="0.001" stroke-linecap="round" stroke-linejoin="round" stroke-miterlimit="10" x1="410.896" y1="48.961" x2="410.896" y2="101.589"/>
	
		<line display="inline" fill="none" stroke="#000000" stroke-width="0.001" stroke-linecap="round" stroke-linejoin="round" stroke-miterlimit="10" x1="438.773" y1="48.813" x2="518.426" y2="48.961"/>
</g>
<g id="LEFT_CUT_TOY" display="none">
	
		<rect x="158.592" y="140.934" display="inline" fill="none" stroke="#000000" stroke-width="0.001" stroke-linecap="round" stroke-linejoin="round" stroke-miterlimit="10" width="54" height="108"/>
	<g id="LWPOLYLINE_1_" display="inline">
		
			<path fill="none" stroke="#000000" stroke-width="0.001" stroke-linecap="round" stroke-linejoin="round" stroke-miterlimit="10" d="
			M449.252,215.282c0,1.565-1.471,2.834-3.285,2.834h-72.271c-1.814,0-3.285-1.269-3.285-2.834v-39.686
			c0-1.565,1.471-2.834,3.285-2.834h72.271c1.814,0,3.285,1.269,3.285,2.834V215.282z"/>
	</g>
	<g id="CIRCLE_8_" display="inline">
		
			<path fill="none" stroke="#000000" stroke-width="0.001" stroke-linecap="round" stroke-linejoin="round" stroke-miterlimit="10" d="
			M121.759,88.521c0-3.914-3.172-7.086-7.086-7.086c-3.914,0-7.086,3.172-7.086,7.086s3.173,7.087,7.086,7.087
			C118.586,95.608,121.759,92.436,121.759,88.521L121.759,88.521z"/>
	</g>
	<g id="CIRCLE_11_" display="inline">
		
			<path fill="none" stroke="#000000" stroke-width="0.001" stroke-linecap="round" stroke-linejoin="round" stroke-miterlimit="10" d="
			M121.907,304.483c0-3.913-3.172-7.086-7.086-7.086c-3.914,0-7.086,3.173-7.086,7.086c0,3.914,3.173,7.087,7.086,7.087
			C118.735,311.57,121.907,308.397,121.907,304.483L121.907,304.483z"/>
	</g>
	<g id="CIRCLE_1_" display="inline">
		
			<path fill="none" stroke="#000000" stroke-width="0.001" stroke-linecap="round" stroke-linejoin="round" stroke-miterlimit="10" d="
			M356.479,88.521c0-3.914-3.172-7.086-7.086-7.086c-3.914,0-7.086,3.172-7.086,7.086s3.173,7.087,7.086,7.087
			C353.307,95.608,356.479,92.436,356.479,88.521L356.479,88.521z"/>
	</g>
	<g id="CIRCLE_2_" display="inline">
		
			<path fill="none" stroke="#000000" stroke-width="0.001" stroke-linecap="round" stroke-linejoin="round" stroke-miterlimit="10" d="
			M356.627,304.483c0-3.913-3.172-7.086-7.086-7.086c-3.914,0-7.086,3.173-7.086,7.086c0,3.914,3.173,7.087,7.086,7.087
			C353.455,311.57,356.627,308.397,356.627,304.483L356.627,304.483z"/>
	</g>
	<g id="CIRCLE_5_" display="inline">
		
			<path fill="none" stroke="#000000" stroke-width="0.001" stroke-linecap="round" stroke-linejoin="round" stroke-miterlimit="10" d="
			M591.199,88.521c0-3.914-3.172-7.086-7.086-7.086c-3.914,0-7.086,3.172-7.086,7.086s3.173,7.087,7.086,7.087
			C588.027,95.608,591.199,92.436,591.199,88.521L591.199,88.521z"/>
	</g>
	<g id="CIRCLE_3_" display="inline">
		
			<path fill="none" stroke="#000000" stroke-width="0.001" stroke-linecap="round" stroke-linejoin="round" stroke-miterlimit="10" d="
			M591.348,304.483c0-3.913-3.172-7.086-7.086-7.086c-3.914,0-7.086,3.173-7.086,7.086c0,3.914,3.173,7.087,7.086,7.087
			C588.175,311.57,591.348,308.397,591.348,304.483L591.348,304.483z"/>
	</g>
</g>
<g id="LEFT_CUT_ADA" display="none">
	
		<rect x="87.674" y="131.465" display="inline" fill="none" stroke="#000000" stroke-width="0.001" stroke-linecap="round" stroke-linejoin="round" stroke-miterlimit="10" width="54" height="108"/>
	<g id="CIRCLE_24_" display="inline">
		
			<path fill="none" stroke="#000000" stroke-width="0.001" stroke-linecap="round" stroke-linejoin="round" stroke-miterlimit="10" d="
			M103.254,76.321c0-3.914-3.172-7.086-7.086-7.086c-3.914,0-7.086,3.172-7.086,7.086s3.173,7.087,7.086,7.087
			C100.082,83.408,103.254,80.235,103.254,76.321L103.254,76.321z"/>
	</g>
	<g id="CIRCLE_23_" display="inline">
		
			<path fill="none" stroke="#000000" stroke-width="0.001" stroke-linecap="round" stroke-linejoin="round" stroke-miterlimit="10" d="
			M103.398,292.283c0-3.913-3.172-7.086-7.086-7.086c-3.914,0-7.086,3.173-7.086,7.086c0,3.914,3.173,7.087,7.086,7.087
			C100.226,299.37,103.398,296.197,103.398,292.283L103.398,292.283z"/>
	</g>
	<g id="CIRCLE_21_" display="inline">
		
			<path fill="none" stroke="#000000" stroke-width="0.001" stroke-linecap="round" stroke-linejoin="round" stroke-miterlimit="10" d="
			M337.972,76.321c0-3.914-3.172-7.086-7.086-7.086c-3.914,0-7.086,3.172-7.086,7.086s3.173,7.087,7.086,7.087
			C334.8,83.408,337.972,80.235,337.972,76.321L337.972,76.321z"/>
	</g>
	<g id="CIRCLE_20_" display="inline">
		
			<path fill="none" stroke="#000000" stroke-width="0.001" stroke-linecap="round" stroke-linejoin="round" stroke-miterlimit="10" d="
			M338.121,292.283c0-3.913-3.172-7.086-7.086-7.086c-3.914,0-7.086,3.173-7.086,7.086c0,3.914,3.173,7.087,7.086,7.087
			C334.948,299.37,338.121,296.197,338.121,292.283L338.121,292.283z"/>
	</g>
	<g id="CIRCLE_19_" display="inline">
		
			<path fill="none" stroke="#000000" stroke-width="0.001" stroke-linecap="round" stroke-linejoin="round" stroke-miterlimit="10" d="
			M572.692,76.321c0-3.914-3.172-7.086-7.086-7.086c-3.914,0-7.086,3.172-7.086,7.086s3.173,7.087,7.086,7.087
			C569.52,83.408,572.692,80.235,572.692,76.321L572.692,76.321z"/>
	</g>
	<g id="CIRCLE_18_" display="inline">
		
			<path fill="none" stroke="#000000" stroke-width="0.001" stroke-linecap="round" stroke-linejoin="round" stroke-miterlimit="10" d="
			M572.841,292.283c0-3.913-3.172-7.086-7.086-7.086c-3.914,0-7.086,3.173-7.086,7.086c0,3.914,3.173,7.087,7.086,7.087
			C569.668,299.37,572.841,296.197,572.841,292.283L572.841,292.283z"/>
	</g>
	<g id="LWPOLYLINE_3_" display="inline">
		
			<path fill="none" stroke="#000000" stroke-width="0.001" stroke-linecap="round" stroke-linejoin="round" stroke-miterlimit="10" d="
			M423.181,193.721c0,1.565-1.589,2.834-3.55,2.834h-78.109c-1.96,0-3.55-1.269-3.55-2.834v-39.686c0-1.565,1.589-2.834,3.55-2.834
			h78.109c1.961,0,3.55,1.269,3.55,2.834V193.721z"/>
	</g>
</g>
<g id="Side_Buttons" display="none">
	<g id="LINE_68_" display="inline">
		
			<line fill="none" stroke="#FF0000" stroke-width="0.001" stroke-linecap="round" stroke-linejoin="round" stroke-miterlimit="10" x1="654.074" y1="357.382" x2="699.427" y2="357.382"/>
	</g>
	<g id="LINE_67_" display="inline">
		
			<line fill="none" stroke="#FF0000" stroke-width="0.001" stroke-linecap="round" stroke-linejoin="round" stroke-miterlimit="10" x1="699.428" y1="247.222" x2="669.947" y2="247.222"/>
	</g>
	<g id="LINE_66_" display="inline">
		
			<line fill="none" stroke="#FF0000" stroke-width="0.001" stroke-linecap="round" stroke-linejoin="round" stroke-miterlimit="10" x1="669.947" y1="213.741" x2="699.428" y2="213.741"/>
	</g>
	<g id="LINE_65_" display="inline">
		
			<line fill="none" stroke="#FF0000" stroke-width="0.001" stroke-linecap="round" stroke-linejoin="round" stroke-miterlimit="10" x1="699.428" y1="188.12" x2="679.585" y2="188.12"/>
	</g>
	<g id="LINE_64_" display="inline">
		
			<line fill="none" stroke="#FF0000" stroke-width="0.001" stroke-linecap="round" stroke-linejoin="round" stroke-miterlimit="10" x1="679.585" y1="145.6" x2="699.428" y2="145.6"/>
	</g>
	<g id="LINE_63_" display="inline">
		
			<line fill="none" stroke="#FF0000" stroke-width="0.001" stroke-linecap="round" stroke-linejoin="round" stroke-miterlimit="10" x1="699.428" y1="120.229" x2="675.333" y2="120.229"/>
	</g>
	<g id="LINE_62_" display="inline">
		
			<line fill="none" stroke="#FF0000" stroke-width="0.001" stroke-linecap="round" stroke-linejoin="round" stroke-miterlimit="10" x1="675.333" y1="91.883" x2="699.428" y2="91.883"/>
	</g>
	<g id="LINE_61_" display="inline">
		
			<line fill="none" stroke="#FF0000" stroke-width="0.001" stroke-linecap="round" stroke-linejoin="round" stroke-miterlimit="10" x1="699.43" y1="357.382" x2="699.43" y2="247.222"/>
	</g>
	<g id="LINE_60_" display="inline">
		
			<line fill="none" stroke="#FF0000" stroke-width="0.001" stroke-linecap="round" stroke-linejoin="round" stroke-miterlimit="10" x1="699.428" y1="213.741" x2="699.428" y2="188.12"/>
	</g>
	<g id="LINE_59_" display="inline">
		
			<line fill="none" stroke="#FF0000" stroke-width="0.001" stroke-linecap="round" stroke-linejoin="round" stroke-miterlimit="10" x1="699.428" y1="145.6" x2="699.428" y2="120.229"/>
	</g>
	<g id="LINE_58_" display="inline">
		
			<line fill="none" stroke="#FF0000" stroke-width="0.001" stroke-linecap="round" stroke-linejoin="round" stroke-miterlimit="10" x1="699.428" y1="91.883" x2="699.428" y2="11.948"/>
	</g>
	<g id="LINE_56_" display="inline">
		
			<line fill="none" stroke="#FF0000" stroke-width="0.001" stroke-linecap="round" stroke-linejoin="round" stroke-miterlimit="10" x1="679.585" y1="188.12" x2="679.585" y2="145.6"/>
	</g>
	<g id="LINE_55_" display="inline">
		
			<line fill="none" stroke="#FF0000" stroke-width="0.001" stroke-linecap="round" stroke-linejoin="round" stroke-miterlimit="10" x1="675.333" y1="120.229" x2="675.333" y2="91.883"/>
	</g>
	<g id="LINE_54_" display="inline">
		
			<line fill="none" stroke="#FF0000" stroke-width="0.001" stroke-linecap="round" stroke-linejoin="round" stroke-miterlimit="10" x1="669.947" y1="247.222" x2="669.947" y2="213.741"/>
	</g>
	<g id="LINE_52_" display="inline">
		
			<line fill="none" stroke="#FF0000" stroke-width="0.001" stroke-linecap="round" stroke-linejoin="round" stroke-miterlimit="10" x1="654.072" y1="11.949" x2="654.072" y2="357.382"/>
	</g>
	<g display="inline">
		<g id="LINE_57_">
			
				<line fill="none" stroke="#FF0000" stroke-width="0.001" stroke-linecap="round" stroke-linejoin="round" stroke-miterlimit="10" x1="689.089" y1="298.519" x2="689.089" y2="336.504"/>
		</g>
		<g id="LINE_53_">
			
				<line fill="none" stroke="#FF0000" stroke-width="0.001" stroke-linecap="round" stroke-linejoin="round" stroke-miterlimit="10" x1="664.995" y1="336.504" x2="664.995" y2="298.519"/>
		</g>
		<g id="LINE_51_">
			
				<line fill="none" stroke="#FF0000" stroke-width="0.001" stroke-linecap="round" stroke-linejoin="round" stroke-miterlimit="10" x1="689.089" y1="336.504" x2="664.995" y2="336.504"/>
		</g>
		<g id="LINE_50_">
			
				<line fill="none" stroke="#FF0000" stroke-width="0.001" stroke-linecap="round" stroke-linejoin="round" stroke-miterlimit="10" x1="664.995" y1="298.519" x2="689.089" y2="298.519"/>
		</g>
	</g>
	<g id="LINE_49_" display="inline">
		
			<line fill="none" stroke="#FF0000" stroke-width="0.001" stroke-linecap="round" stroke-linejoin="round" stroke-miterlimit="10" x1="699.429" y1="11.948" x2="654.072" y2="11.948"/>
	</g>
	
		<circle display="inline" fill="none" stroke="#FF0000" stroke-width="0.001" stroke-linecap="round" stroke-linejoin="round" stroke-miterlimit="10" cx="673.301" cy="46.523" r="10.08"/>
</g>
<g id="Left_Side_Panel" display="none">
	
		<rect x="709.64" y="11.948" display="inline" fill="none" stroke="#FF0000" stroke-width="0.001" stroke-linecap="round" stroke-linejoin="round" stroke-miterlimit="10" width="45.36" height="345.435"/>
</g>
<g id="Top_Side_Panel" display="none">
	<g display="inline">
		
			<polyline fill="none" stroke="#FF0000" stroke-width="0.001" stroke-linecap="round" stroke-linejoin="round" stroke-miterlimit="10" points="
			20.098,467 20.098,421.641 506.945,421.641 506.945,467 		"/>
		
			<line fill="none" stroke="#FF0000" stroke-width="0.001" stroke-linecap="round" stroke-linejoin="round" stroke-miterlimit="10" x1="20.099" y1="467" x2="274.788" y2="467"/>
		
			<line fill="none" stroke="#FF0000" stroke-width="0.001" stroke-linecap="round" stroke-linejoin="round" stroke-miterlimit="10" x1="351.936" y1="467" x2="506.945" y2="467"/>
		
			<line fill="none" stroke="#FF0000" stroke-width="0.001" stroke-linecap="round" stroke-linejoin="round" stroke-miterlimit="10" x1="274.788" y1="467" x2="274.788" y2="443.52"/>
		
			<line fill="none" stroke="#FF0000" stroke-width="0.001" stroke-linecap="round" stroke-linejoin="round" stroke-miterlimit="10" x1="351.936" y1="443.52" x2="351.936" y2="467"/>
		
			<line fill="none" stroke="#FF0000" stroke-width="0.001" stroke-linecap="round" stroke-linejoin="round" stroke-miterlimit="10" x1="274.788" y1="443.52" x2="351.939" y2="443.52"/>
	</g>
</g>
<g id="Logo" display="none">
	<g id="pxZWUL_1_" display="inline">
		<g>
			<path fill="none" stroke="#FF0000" stroke-width="0.001" stroke-miterlimit="10" d="M410.372,218.757
				c-0.009,0.251-0.025,0.502-0.025,0.753c-0.001,10.477-0.001,20.952-0.001,31.428c0,3.276-0.002,6.553,0,9.828
				c0.001,1.296-0.473,2.397-1.553,3.097c-0.803,0.52-1.698,1.015-2.617,1.206c-1.663,0.344-3.371,0.615-5.063,0.629
				c-7.776,0.064-15.552,0.031-23.329,0.026c-1.187,0-2.375,0.002-3.56-0.056c-1.894-0.091-3.767-0.324-5.503-1.161
				c-1.699-0.818-2.581-2.141-2.572-4.069c0.021-5.041,0.006-10.081,0.012-15.12c0-0.376,0.022-0.759,0.098-1.126
				c0.354-1.729,1.588-2.626,3.119-3.212c1.98-0.76,4.064-0.931,6.153-0.936c8.911-0.021,17.82-0.009,26.73-0.009
				c0.225,0,0.45,0,0.69,0c0-1.913,0-3.739,0-5.623c-0.269,0-0.498,0-0.729,0c-8.567,0-17.136,0.007-25.704-0.005
				c-3.061-0.003-6.112,0.114-9.141,0.583c-2.625,0.406-5.187,1.033-7.532,2.338c-3.129,1.74-4.765,4.35-4.74,7.989
				c0.035,5.22-0.012,10.439,0.021,15.66c0.014,2.168,0.759,4.082,2.309,5.645c1.783,1.798,4.027,2.739,6.407,3.399
				c3.456,0.959,7.002,1.293,10.57,1.309c8.712,0.035,17.425,0.003,26.136,0.016c2.81,0.004,5.606-0.13,8.388-0.543
				c2.573-0.382,5.089-0.975,7.415-2.188c3.32-1.731,5.083-4.385,5.073-8.227c-0.035-13.661-0.014-27.323-0.015-40.985
				c0-0.216-0.014-0.432-0.021-0.646 M155.815,218.757c0.144,0,0.288,0,0.433,0c-0.005,0.126-0.015,0.251-0.015,0.376
				c0,17.227,0,34.451,0.001,51.678c0,0.173,0.018,0.345,0.027,0.515c3.713,0,7.372,0,11.088,0c0-4.601,0-9.162,0-13.786
				c0.231,0.097,0.396,0.157,0.554,0.232c3.179,1.521,6.356,3.044,9.535,4.562c6.165,2.945,12.329,5.892,18.499,8.825
				c0.265,0.125,0.582,0.197,0.873,0.197c5.148,0.013,10.297,0.01,15.444,0.009c0.128,0,0.256-0.025,0.385-0.037
				c0.002-0.03,0.006-0.06,0.008-0.09c-13.541-6.1-27.083-12.2-40.747-18.356c13.668-6.157,27.216-12.261,40.763-18.365
				c-0.15-0.11-0.27-0.126-0.39-0.126c-5.184-0.001-10.367-0.002-15.552,0.006c-0.223,0.001-0.464,0.061-0.666,0.156
				c-1.739,0.821-3.472,1.658-5.206,2.49c-6.824,3.273-13.647,6.549-20.471,9.821c-0.982,0.472-1.968,0.938-3.038,1.447
				c0-0.286,0-0.478,0-0.669c0-9.432,0-18.863,0.001-28.295c0-0.197,0.02-0.395,0.03-0.591 M155.815,285.284
				c0-0.144,0-0.288,0-0.433c1.214,0,2.427,0,3.659,0c0-1.562,0.015-3.02-0.009-4.477c-0.007-0.422,0.153-0.656,0.544-0.727
				c0.493-0.09,0.992-0.211,1.488-0.214c3.329-0.026,6.659-0.038,9.987-0.021c0.678,0.003,1.354,0.133,2.03,0.228
				c0.418,0.058,0.612,0.304,0.586,0.749c-0.028,0.485-0.029,0.974,0.001,1.458c0.027,0.425-0.169,0.67-0.551,0.728
				c-0.708,0.105-1.423,0.225-2.137,0.23c-2.97,0.026-5.938,0.011-8.908,0.012c-0.621,0.001-0.643,0.033-0.496,0.762
				c0.179,0,0.371,0,0.563,0c2.771,0,5.543,0.018,8.314-0.007c1.312-0.011,2.627-0.054,3.931-0.177
				c0.777-0.074,1.546-0.303,2.303-0.516c0.464-0.132,0.671-0.499,0.648-1c-0.021-0.466-0.004-0.935-0.006-1.402
				c-0.001-0.783-0.142-1.055-0.913-1.239c-0.938-0.226-1.902-0.458-2.859-0.479c-3.453-0.079-6.908-0.093-10.362-0.089
				c-1.671,0.002-3.345,0.055-5.012,0.167c-0.995,0.067-2.013,0.198-2.803,0.939 M319.976,285.284
				c0.104-0.023,0.207-0.06,0.312-0.066c0.914-0.06,1.833-0.077,2.741-0.186c0.637-0.076,1.269-0.245,1.885-0.431
				c0.463-0.141,0.72-0.456,0.696-1.011c-0.042-1.005-0.012-2.015-0.012-3.022c0-0.932-0.136-1.202-1.048-1.393
				c-1.086-0.228-2.197-0.442-3.301-0.456c-4.388-0.051-8.777-0.057-13.166,0.003c-1.171,0.016-2.35,0.273-3.504,0.519
				c-0.762,0.161-0.902,0.462-0.902,1.246c0,0.378,0,0.756,0,1.133c0,0.938,0.175,1.241,1.099,1.437
				c0.998,0.212,2.018,0.412,3.032,0.432c3.758,0.072,7.518,0.068,11.276,0.09c0.136,0,0.271-0.04,0.434-0.064
				c-0.014-0.25-0.024-0.455-0.038-0.697c-0.275,0-0.489,0-0.703,0c-2.969,0-5.937,0.016-8.905-0.012
				c-0.677-0.005-1.355-0.134-2.026-0.245c-0.359-0.06-0.529-0.308-0.507-0.705c0.029-0.502,0.023-1.008,0.002-1.51
				c-0.017-0.396,0.159-0.622,0.528-0.69c0.493-0.091,0.99-0.217,1.487-0.221c3.328-0.026,6.656-0.039,9.985-0.02
				c0.712,0.004,1.424,0.146,2.133,0.25c0.352,0.052,0.495,0.282,0.484,0.655c-0.022,0.809-0.007,1.619-0.007,2.429
				c0.001,1.479-0.129,1.616-1.629,1.699c-0.054,0.003-0.108,0.003-0.162,0.003c-3.221,0.007-6.44,0.014-9.661,0.021
				c-0.211,0.002-0.422,0-0.676,0c0,0.318,0,0.565,0,0.813 M468.477,285.284c0.48-0.037,0.959-0.076,1.441-0.112
				c1.199-0.089,2.406-0.129,3.53-0.643c0.39-0.178,0.571-0.447,0.567-0.883c-0.013-1.493-0.018-2.987,0.002-4.48
				c0.006-0.418-0.155-0.521-0.539-0.511c-0.863,0.021-1.729,0.026-2.591-0.003c-0.446-0.016-0.544,0.163-0.534,0.568
				c0.023,1.007-0.012,2.016,0.017,3.023c0.013,0.438-0.106,0.585-0.567,0.583c-3.886-0.018-7.774-0.001-11.66-0.021
				c-0.588-0.002-1.178-0.113-1.764-0.201c-0.455-0.068-0.662-0.324-0.64-0.824c0.037-0.879,0.024-1.763-0.004-2.644
				c-0.005-0.158-0.176-0.445-0.275-0.448c-1.108-0.032-2.218-0.021-3.384-0.021c0,1.04,0,2.008,0,2.975
				c0,0.885,0.203,1.161,1.063,1.419c0.206,0.061,0.416,0.134,0.628,0.15c1.755,0.129,3.508,0.324,5.264,0.352
				c3.598,0.054,7.197,0.014,10.795,0.023c0.172,0,0.344,0.103,0.515,0.156c-0.141,0.16-0.255,0.409-0.427,0.462
				c-0.426,0.129-0.877,0.231-1.318,0.234c-3.239,0.026-6.479,0.024-9.717,0.032c-0.21,0-0.42,0-0.664,0c0,0.319,0,0.565,0,0.812
				 M598.184,243.704c-0.037-0.094-0.095-0.186-0.109-0.284c-0.231-1.438-0.812-2.718-1.758-3.823
				c-1.629-1.902-3.789-2.937-6.12-3.662c-3.763-1.171-7.651-1.519-11.558-1.529c-13.338-0.039-26.675-0.016-40.012-0.014
				c-0.188,0-0.377,0.02-0.558,0.03c0,1.907,0,3.751,0,5.631c0.328,0,0.614-0.002,0.899,0c13.3,0.017,26.6,0.025,39.9,0.062
				c1.729,0.005,3.445,0.254,5.074,0.888c2.086,0.812,3.218,2.126,3.191,4.522c-0.056,5.021-0.006,10.043-0.032,15.064
				c-0.003,0.596-0.123,1.228-0.348,1.777c-0.521,1.268-1.609,1.94-2.839,2.403c-1.913,0.722-3.92,0.915-5.937,0.92
				c-8.352,0.023-16.702,0.018-25.055,0.002c-1.166-0.002-2.337-0.066-3.497-0.184c-1.508-0.151-2.99-0.462-4.322-1.241
				c-1.297-0.757-2.096-1.843-2.126-3.399c-0.039-1.993,0.894-3.328,2.854-4.118c1.92-0.773,3.938-1.006,5.975-1.012
				c9.089-0.026,18.178-0.012,27.268-0.012c0.228,0,0.456,0,0.691,0c0-1.924,0-3.779,0-5.664c-0.243,0-0.44,0-0.637,0
				c-9.126,0-18.251-0.002-27.377,0.002c-3.188,0.002-6.357,0.243-9.484,0.895c-2.41,0.502-4.709,1.275-6.781,2.667
				c-4.674,3.139-4.34,9.486-1.812,12.448c1.604,1.877,3.691,2.943,5.981,3.681c3.771,1.214,7.675,1.575,11.603,1.596
				c8.854,0.047,17.711,0.057,26.565-0.011c2.67-0.021,5.349-0.256,8.004-0.557c2.672-0.302,5.264-1.005,7.64-2.333
				c2.484-1.387,4.198-3.352,4.625-6.265c0.007-0.044,0.059-0.081,0.089-0.121 M515.93,271.365c0,0.557-0.012,1.056,0,1.554
				c0.056,2.027-0.933,3.368-2.736,4.174c-2.102,0.94-4.35,1.116-6.601,1.123c-8.945,0.028-17.892,0.012-26.837,0.013
				c-0.208,0-0.415,0.019-0.63,0.028c0,1.904,0,3.747,0,5.632c0.232,0,0.429,0,0.625,0c9.071,0,18.144,0.006,27.216-0.004
				c2.808-0.004,5.605-0.185,8.376-0.669c2.565-0.447,5.062-1.108,7.318-2.47c2.884-1.742,4.354-4.266,4.348-7.673
				c-0.019-12.653-0.007-25.308-0.007-37.962c0-0.227,0-0.453,0-0.686c-3.727,0-7.371,0-11.08,0c0,10.429,0,20.822,0,31.233
				c-0.184,0.018-0.307,0.04-0.429,0.04c-11.88-0.015-23.758-0.02-35.637-0.06c-1.747-0.007-3.478-0.279-5.113-0.956
				c-2.145-0.886-3.008-2.184-3.008-4.489c0.001-8.352,0.001-16.704,0.001-25.056c0-0.229,0-0.458,0-0.702
				c-3.713,0-7.369,0-11.035,0c-0.009,0.152-0.021,0.259-0.021,0.365c0,8.784-0.014,17.568,0.012,26.352
				c0.005,1.913,0.663,3.63,1.934,5.088c1.532,1.754,3.527,2.76,5.688,3.469c3.818,1.254,7.775,1.627,11.758,1.641
				c11.698,0.041,23.398,0.015,35.099,0.015C515.4,271.365,515.63,271.365,515.93,271.365z M243.386,271.366
				c3.978,0,7.954-0.013,11.932,0.004c2.987,0.012,5.966-0.115,8.923-0.564c2.753-0.418,5.439-1.065,7.875-2.48
				c2.787-1.618,4.427-3.985,4.45-7.272c0.038-5.417,0.032-10.834,0-16.251c-0.015-2.483-0.972-4.579-2.88-6.207
				c-1.735-1.48-3.792-2.317-5.962-2.905c-3.638-0.985-7.363-1.276-11.108-1.29c-8.314-0.029-16.629-0.004-24.942-0.012
				c-3.042-0.003-6.074,0.11-9.084,0.573c-2.681,0.411-5.298,1.037-7.682,2.39c-3.067,1.739-4.702,4.305-4.667,7.917
				c0.052,5.218,0.01,10.438,0.015,15.656c0.003,2.634,1.058,4.772,3.09,6.43c1.693,1.381,3.678,2.164,5.758,2.727
				c3.442,0.932,6.969,1.239,10.517,1.274C234.208,271.4,238.797,271.366,243.386,271.366z M282.693,271.331
				c3.693,0,7.355,0,11.09,0c0-10.441,0-20.849,0-31.251c0.127-0.015,0.181-0.026,0.233-0.026
				c11.913,0.017,23.827,0.023,35.74,0.063c1.693,0.006,3.371,0.265,4.969,0.879c1.923,0.74,3.223,2.012,3.208,4.515
				c-0.047,8.386-0.018,16.773-0.018,25.161c0,0.21,0,0.421,0,0.662c3.709,0,7.355,0,11.074,0c0-0.221,0-0.431,0-0.641
				c0-8.657,0.008-17.314-0.006-25.971c-0.003-1.877-0.592-3.573-1.796-5.03c-1.611-1.95-3.784-3.001-6.13-3.737
				c-3.794-1.191-7.717-1.542-11.66-1.55c-15.371-0.035-30.741-0.015-46.111-0.015c-0.191,0-0.383,0-0.594,0
				C282.693,246.748,282.693,259.033,282.693,271.331z M438.629,271.337c0-0.258,0-0.486,0-0.716c0-8.513,0.001-17.026-0.005-25.539
				c-0.001-1.451,0.6-2.575,1.798-3.364c0.46-0.304,0.968-0.558,1.485-0.753c1.931-0.727,3.962-0.871,5.995-0.902
				c2.844-0.043,5.688-0.012,8.53-0.012c0.19,0,0.379,0,0.571,0c0-1.923,0-3.769,0-5.66c-0.228,0-0.422,0-0.615,0
				c-2.646,0-5.294-0.06-7.938,0.017c-2.602,0.075-5.207,0.199-7.794,0.463c-2.894,0.294-5.708,0.979-8.294,2.388
				c-3.091,1.683-4.842,4.216-4.844,7.816c-0.004,8.567,0,17.134,0,25.701c0,0.188,0.02,0.377,0.029,0.562
				C431.267,271.337,434.914,271.337,438.629,271.337z M390.732,284.814c0-0.225,0-0.418,0-0.61c0-1.259,0.018-2.519-0.008-3.777
				c-0.01-0.464,0.166-0.734,0.608-0.794c0.745-0.102,1.494-0.231,2.244-0.239c2.967-0.027,5.937-0.027,8.903-0.002
				c0.75,0.007,1.5,0.132,2.247,0.227c0.457,0.059,0.691,0.311,0.65,0.812c-0.038,0.447-0.035,0.901,0,1.348
				c0.04,0.497-0.19,0.758-0.644,0.823c-0.62,0.092-1.246,0.202-1.869,0.207c-3.004,0.021-6.008,0.01-9.012,0.01
				c-0.206,0-0.412,0-0.609,0c0,0.301,0,0.507,0,0.708c0.089,0.021,0.141,0.045,0.192,0.045c3.867-0.022,7.734-0.018,11.601-0.088
				c0.977-0.018,1.961-0.227,2.922-0.439c0.906-0.202,1.075-0.496,1.075-1.402c0-0.306,0.001-0.611,0.001-0.918
				c0-1.102-0.146-1.39-1.25-1.585c-1.357-0.238-2.74-0.438-4.113-0.454c-4.046-0.048-8.096-0.035-12.141,0.04
				c-1.191,0.022-2.388,0.272-3.559,0.524c-0.757,0.162-0.91,0.486-0.911,1.251c-0.001,0.791,0,1.583,0,2.375
				c0,0.641,0,1.282,0,1.939C388.312,284.814,389.489,284.814,390.732,284.814z M370.4,280.746c-0.88,0-1.705-0.008-2.529,0.001
				c-3.31,0.035-6.621,0.037-9.929,0.141c-0.933,0.029-1.865,0.333-2.776,0.586c-0.229,0.063-0.525,0.425-0.519,0.642
				c0.008,0.25,0.282,0.531,0.507,0.721c0.181,0.152,0.453,0.231,0.696,0.269c0.976,0.15,1.954,0.376,2.934,0.385
				c4.532,0.041,9.065,0.048,13.599-0.005c1.064-0.012,2.14-0.246,3.187-0.482c0.821-0.186,0.958-0.472,0.959-1.315
				c0-0.342,0-0.685-0.001-1.026c0-1.043-0.118-1.312-1.142-1.495c-1.392-0.248-2.81-0.461-4.219-0.479
				c-4.661-0.058-9.323-0.022-13.985-0.02c-0.188,0-0.376,0.026-0.588,0.042c0.017,0.258,0.028,0.446,0.043,0.674
				c0.292,0,0.524,0,0.756,0c4.158,0,8.315-0.004,12.474,0.005c0.592,0.001,1.189,0.024,1.774,0.105
				c1.195,0.164,1.221,0.215,1.223,1.415c0.001,1.716-0.046,1.835-1.792,1.863c-3.581,0.057-7.163,0.041-10.744,0.027
				c-0.549-0.003-1.103-0.139-1.643-0.261c-0.159-0.036-0.281-0.237-0.42-0.363c0.144-0.143,0.268-0.376,0.434-0.41
				c0.595-0.124,1.202-0.245,1.808-0.252c3.095-0.035,6.19-0.035,9.285-0.046c0.193-0.001,0.387,0,0.609,0
				C370.4,281.206,370.4,281.015,370.4,280.746z M423.239,279.438c0.229-0.015,0.388-0.033,0.546-0.033
				c3.796-0.002,7.592-0.013,11.388,0.009c0.694,0.004,1.391,0.125,2.085,0.218c0.44,0.06,0.623,0.324,0.607,0.791
				c-0.03,0.898,0.003,1.799-0.015,2.698c-0.006,0.351,0.117,0.472,0.469,0.465c0.917-0.019,1.835-0.014,2.753,0
				c0.331,0.007,0.44-0.123,0.436-0.442c-0.013-0.9-0.004-1.8-0.004-2.699c-0.001-0.758-0.141-0.961-0.869-1.223
				c-0.221-0.078-0.446-0.16-0.676-0.183c-1.357-0.135-2.715-0.343-4.072-0.359c-3.869-0.05-7.737-0.013-11.604-0.021
				c-1.207-0.001-1.024,0.157-1.04-1.015c-0.005-0.354-0.002-0.706-0.002-1.073c-1.266,0-2.441,0-3.629,0c0,2.346,0,4.654,0,6.959
				c0.093,0.02,0.146,0.039,0.197,0.041c0.738,0.004,1.475,0.008,2.212,0.009c1.22,0.001,1.22,0,1.219-1.21
				C423.239,281.401,423.239,280.436,423.239,279.438z M206.602,283.574c1.168,0,2.261,0.011,3.354-0.018
				c0.095-0.003,0.26-0.261,0.264-0.404c0.023-0.917-0.026-1.837,0.024-2.752c0.035-0.618-0.243-0.945-0.768-1.134
				c-0.287-0.103-0.581-0.218-0.88-0.248c-1.321-0.135-2.645-0.326-3.969-0.341c-3.976-0.045-7.952-0.016-11.928-0.018
				c-0.227,0-0.453-0.021-0.729-0.035c0-0.718,0-1.376,0-2.057c-1.232,0-2.409,0-3.555,0c-0.043,0.048-0.065,0.061-0.066,0.073
				c-0.012,2.213-0.026,4.424-0.024,6.636c0,0.098,0.146,0.279,0.225,0.281c1.127,0.02,2.254,0.013,3.454,0.013
				c0-1.424,0-2.778,0-4.135c0.179-0.017,0.286-0.034,0.393-0.034c3.869-0.001,7.737-0.012,11.605,0.01
				c0.677,0.004,1.354,0.133,2.028,0.23c0.416,0.061,0.592,0.317,0.581,0.76C206.586,281.424,206.602,282.448,206.602,283.574z
				 M282.179,278.587c-0.001,0.038-0.002,0.075-0.003,0.112c-2.177,0-4.356-0.063-6.529,0.024c-1.227,0.049-2.45,0.315-3.663,0.548
				c-0.543,0.104-0.854,0.489-0.783,1.108c0.038,0.338,0.007,0.684,0.007,1.025c-0.001,1.272,0.104,1.409,1.336,1.732
				c0.139,0.036,0.279,0.081,0.421,0.093c1.287,0.109,2.575,0.305,3.863,0.303c4.46-0.002,8.921-0.053,13.38-0.136
				c0.722-0.014,1.448-0.248,2.155-0.447c0.529-0.149,0.832-0.519,0.781-1.13c-0.038-0.465-0.009-0.936-0.009-1.403
				c-0.002-0.683-0.152-0.957-0.817-1.156c-0.65-0.194-1.325-0.392-1.998-0.421C287.607,278.721,284.893,278.666,282.179,278.587z
				 M231.831,278.586c-2.76,0.08-5.49,0.124-8.218,0.258c-0.753,0.037-1.502,0.315-2.237,0.532
				c-0.399,0.116-0.584,0.435-0.562,0.876c0.023,0.503,0.004,1.007,0.006,1.511c0.002,0.768,0.155,1.028,0.913,1.239
				c0.671,0.186,1.365,0.365,2.055,0.396c2.226,0.099,4.453,0.176,6.68,0.171c3.091-0.007,6.181-0.062,9.269-0.17
				c0.792-0.026,1.582-0.288,2.356-0.5c0.452-0.124,0.694-0.455,0.655-0.979c-0.04-0.555-0.029-1.116-0.003-1.671
				c0.02-0.421-0.145-0.732-0.521-0.847c-0.733-0.225-1.479-0.515-2.23-0.553C237.267,278.711,234.535,278.666,231.831,278.586z
				 M257.499,276.564c-1.146,0-2.217,0-3.363,0c0,0.563-0.017,1.098,0.007,1.631c0.016,0.352-0.109,0.485-0.462,0.471
				c-0.512-0.021-1.024-0.006-1.52-0.006c-0.105,0.739-0.105,0.739,0.524,0.741c0.463,0.001,0.925,0,1.451,0
				c0,0.264,0,0.455,0,0.647c0,1.026,0.007,2.052-0.004,3.077c-0.004,0.304,0.066,0.466,0.416,0.459c0.845-0.018,1.69-0.019,2.536,0
				c0.351,0.007,0.42-0.157,0.417-0.459c-0.009-1.043-0.003-2.086-0.003-3.13c0-0.189,0-0.377,0-0.594
				c1.347,0,2.604-0.001,3.862,0.002c0.265,0,0.496,0.015,0.497-0.376c0-0.4-0.248-0.367-0.503-0.367
				c-1.115,0-2.231-0.016-3.346,0.008c-0.405,0.009-0.541-0.125-0.518-0.526C257.521,277.627,257.499,277.109,257.499,276.564z
				 M339.853,283.545c0-0.898-0.001-1.724,0-2.55c0-1.309,0.076-1.395,1.402-1.529c0.232-0.023,0.467-0.038,0.7-0.04
				c1.187-0.011,2.373-0.021,3.56-0.02c0.27,0.001,0.446-0.025,0.446-0.367c-0.001-0.331-0.166-0.385-0.439-0.381
				c-1.905,0.033-3.814,0.011-5.716,0.107c-0.94,0.048-1.882,0.268-2.798,0.505c-0.311,0.081-0.759,0.441-0.777,0.7
				c-0.084,1.175-0.037,2.36-0.037,3.574C337.424,283.545,338.601,283.545,339.853,283.545z"/>
			<path fill-rule="evenodd" clip-rule="evenodd" fill="none" stroke="#FF0000" stroke-width="0.001" stroke-miterlimit="10" d="
				M421.388,218.757c0.007,0.215,0.021,0.431,0.021,0.646c0.001,13.662-0.021,27.324,0.015,40.985
				c0.01,3.842-1.753,6.495-5.073,8.227c-2.326,1.213-4.842,1.806-7.415,2.188c-2.781,0.413-5.578,0.547-8.388,0.543
				c-8.711-0.013-17.424,0.02-26.136-0.016c-3.568-0.016-7.114-0.35-10.57-1.309c-2.38-0.66-4.624-1.602-6.407-3.399
				c-1.55-1.562-2.295-3.477-2.309-5.645c-0.032-5.221,0.015-10.44-0.021-15.66c-0.024-3.64,1.611-6.249,4.74-7.989
				c2.346-1.305,4.907-1.932,7.532-2.338c3.028-0.469,6.08-0.586,9.141-0.583c8.568,0.012,17.137,0.005,25.704,0.005
				c0.231,0,0.461,0,0.729,0c0,1.884,0,3.71,0,5.623c-0.24,0-0.466,0-0.69,0c-8.91,0-17.819-0.012-26.73,0.009
				c-2.089,0.005-4.173,0.176-6.153,0.936c-1.531,0.586-2.765,1.483-3.119,3.212c-0.075,0.367-0.098,0.75-0.098,1.126
				c-0.006,5.039,0.01,10.079-0.012,15.12c-0.009,1.929,0.873,3.251,2.572,4.069c1.736,0.837,3.609,1.07,5.503,1.161
				c1.185,0.058,2.373,0.056,3.56,0.056c7.777,0.005,15.553,0.038,23.329-0.026c1.692-0.014,3.4-0.285,5.063-0.629
				c0.919-0.191,1.814-0.687,2.617-1.206c1.08-0.699,1.554-1.801,1.553-3.097c-0.002-3.275,0-6.552,0-9.828
				c0-10.476,0-20.951,0.001-31.428c0-0.251,0.017-0.502,0.025-0.753C414.044,218.757,417.715,218.757,421.388,218.757z"/>
			<path fill-rule="evenodd" clip-rule="evenodd" fill="none" stroke="#FF0000" stroke-width="0.001" stroke-miterlimit="10" d="
				M598.184,262.064c-0.03,0.04-0.082,0.077-0.089,0.121c-0.427,2.913-2.141,4.878-4.625,6.265c-2.376,1.328-4.968,2.031-7.64,2.333
				c-2.655,0.301-5.334,0.536-8.004,0.557c-8.854,0.067-17.712,0.058-26.565,0.011c-3.928-0.021-7.831-0.382-11.603-1.596
				c-2.29-0.737-4.377-1.804-5.981-3.681c-2.528-2.962-2.862-9.31,1.812-12.448c2.072-1.392,4.371-2.165,6.781-2.667
				c3.127-0.651,6.297-0.893,9.484-0.895c9.126-0.004,18.251-0.002,27.377-0.002c0.196,0,0.394,0,0.637,0c0,1.885,0,3.74,0,5.664
				c-0.235,0-0.464,0-0.691,0c-9.09,0-18.179-0.015-27.268,0.012c-2.036,0.006-4.055,0.238-5.975,1.012
				c-1.961,0.79-2.894,2.125-2.854,4.118c0.03,1.557,0.829,2.643,2.126,3.399c1.332,0.779,2.814,1.09,4.322,1.241
				c1.16,0.117,2.331,0.182,3.497,0.184c8.353,0.016,16.703,0.021,25.055-0.002c2.017-0.005,4.023-0.198,5.937-0.92
				c1.229-0.463,2.318-1.136,2.839-2.403c0.225-0.55,0.345-1.182,0.348-1.777c0.026-5.021-0.023-10.044,0.032-15.064
				c0.026-2.396-1.105-3.711-3.191-4.522c-1.629-0.634-3.345-0.883-5.074-0.888c-13.301-0.037-26.601-0.046-39.9-0.062
				c-0.285-0.002-0.571,0-0.899,0c0-1.88,0-3.724,0-5.631c0.181-0.011,0.369-0.03,0.558-0.03
				c13.337-0.002,26.674-0.025,40.012,0.014c3.906,0.011,7.795,0.358,11.558,1.529c2.331,0.726,4.491,1.76,6.12,3.662
				c0.946,1.105,1.526,2.386,1.758,3.823c0.015,0.099,0.072,0.19,0.109,0.284C598.184,249.824,598.184,255.944,598.184,262.064z"/>
			<path fill-rule="evenodd" clip-rule="evenodd" fill="none" stroke="#FF0000" stroke-width="0.001" stroke-miterlimit="10" d="
				M167.372,218.757c-0.011,0.196-0.03,0.394-0.03,0.591c-0.001,9.432-0.001,18.863-0.001,28.295c0,0.191,0,0.383,0,0.669
				c1.07-0.51,2.056-0.976,3.038-1.447c6.823-3.272,13.646-6.548,20.471-9.821c1.734-0.832,3.467-1.669,5.206-2.49
				c0.202-0.096,0.443-0.155,0.666-0.156c5.185-0.008,10.368-0.007,15.552-0.006c0.12,0,0.239,0.016,0.39,0.126
				c-13.547,6.104-27.095,12.208-40.763,18.365c13.664,6.156,27.206,12.257,40.747,18.356c-0.002,0.03-0.006,0.06-0.008,0.09
				c-0.129,0.012-0.257,0.037-0.385,0.037c-5.147,0.001-10.296,0.004-15.444-0.009c-0.291,0-0.608-0.072-0.873-0.197
				c-6.17-2.934-12.334-5.88-18.499-8.825c-3.179-1.519-6.356-3.042-9.535-4.562c-0.158-0.075-0.322-0.136-0.554-0.232
				c0,4.624,0,9.186,0,13.786c-3.716,0-7.375,0-11.088,0c-0.01-0.17-0.027-0.342-0.027-0.515
				c-0.001-17.227-0.001-34.451-0.001-51.678c0-0.125,0.01-0.25,0.015-0.376C159.955,218.757,163.663,218.757,167.372,218.757z"/>
			<path fill-rule="evenodd" clip-rule="evenodd" fill="none" stroke="#FF0000" stroke-width="0.001" stroke-miterlimit="10" d="
				M309.823,285.284c0-0.248,0-0.495,0-0.813c0.254,0,0.465,0.002,0.676,0c3.221-0.007,6.44-0.014,9.661-0.021
				c0.054,0,0.108,0,0.162-0.003c1.5-0.083,1.63-0.22,1.629-1.699c0-0.81-0.016-1.62,0.007-2.429
				c0.011-0.373-0.133-0.604-0.484-0.655c-0.709-0.104-1.421-0.246-2.133-0.25c-3.329-0.02-6.657-0.007-9.985,0.02
				c-0.497,0.004-0.994,0.13-1.487,0.221c-0.369,0.068-0.545,0.295-0.528,0.69c0.021,0.502,0.027,1.008-0.002,1.51
				c-0.022,0.397,0.147,0.646,0.507,0.705c0.671,0.111,1.35,0.24,2.026,0.245c2.969,0.027,5.937,0.012,8.905,0.012
				c0.214,0,0.428,0,0.703,0c0.014,0.242,0.024,0.447,0.038,0.697c-0.162,0.024-0.298,0.064-0.434,0.064
				c-3.759-0.021-7.519-0.018-11.276-0.09c-1.015-0.02-2.034-0.22-3.032-0.432c-0.924-0.195-1.099-0.498-1.099-1.437
				c0-0.377,0-0.755,0-1.133c0-0.784,0.141-1.085,0.902-1.246c1.154-0.245,2.333-0.503,3.504-0.519
				c4.389-0.06,8.778-0.054,13.166-0.003c1.104,0.014,2.215,0.229,3.301,0.456c0.912,0.19,1.048,0.461,1.048,1.393
				c0,1.008-0.03,2.018,0.012,3.022c0.023,0.555-0.233,0.87-0.696,1.011c-0.616,0.186-1.248,0.354-1.885,0.431
				c-0.908,0.108-1.827,0.126-2.741,0.186c-0.104,0.007-0.208,0.043-0.312,0.066C316.592,285.284,313.207,285.284,309.823,285.284z"
				/>
			<path fill-rule="evenodd" clip-rule="evenodd" fill="none" stroke="#FF0000" stroke-width="0.001" stroke-miterlimit="10" d="
				M458.215,285.284c0-0.246,0-0.492,0-0.812c0.244,0,0.454,0,0.664,0c3.238-0.008,6.478-0.006,9.717-0.032
				c0.441-0.003,0.893-0.105,1.318-0.234c0.172-0.053,0.286-0.302,0.427-0.462c-0.171-0.054-0.343-0.156-0.515-0.156
				c-3.598-0.01-7.197,0.03-10.795-0.023c-1.756-0.027-3.509-0.223-5.264-0.352c-0.212-0.017-0.422-0.09-0.628-0.15
				c-0.86-0.258-1.063-0.534-1.063-1.419c0-0.967,0-1.935,0-2.975c1.166,0,2.275-0.012,3.384,0.021
				c0.1,0.003,0.271,0.29,0.275,0.448c0.028,0.881,0.041,1.765,0.004,2.644c-0.022,0.5,0.185,0.756,0.64,0.824
				c0.586,0.088,1.176,0.199,1.764,0.201c3.886,0.02,7.774,0.003,11.66,0.021c0.461,0.002,0.58-0.145,0.567-0.583
				c-0.028-1.008,0.007-2.017-0.017-3.023c-0.01-0.405,0.088-0.584,0.534-0.568c0.862,0.029,1.728,0.023,2.591,0.003
				c0.384-0.01,0.545,0.093,0.539,0.511c-0.02,1.493-0.015,2.987-0.002,4.48c0.004,0.436-0.178,0.705-0.567,0.883
				c-1.124,0.514-2.331,0.554-3.53,0.643c-0.482,0.036-0.961,0.075-1.441,0.112C465.056,285.284,461.636,285.284,458.215,285.284z"
				/>
			<path fill-rule="evenodd" clip-rule="evenodd" fill="none" stroke="#FF0000" stroke-width="0.001" stroke-miterlimit="10" d="
				M155.815,279.776c0.79-0.741,1.808-0.872,2.803-0.939c1.667-0.112,3.341-0.165,5.012-0.167c3.454-0.004,6.909,0.01,10.362,0.089
				c0.957,0.021,1.921,0.254,2.859,0.479c0.771,0.185,0.912,0.456,0.913,1.239c0.002,0.468-0.016,0.937,0.006,1.402
				c0.022,0.501-0.185,0.868-0.648,1c-0.757,0.213-1.525,0.441-2.303,0.516c-1.304,0.123-2.619,0.166-3.931,0.177
				c-2.771,0.024-5.543,0.007-8.314,0.007c-0.192,0-0.385,0-0.563,0c-0.146-0.729-0.125-0.761,0.496-0.762
				c2.97-0.001,5.938,0.015,8.908-0.012c0.714-0.006,1.429-0.125,2.137-0.23c0.382-0.058,0.578-0.303,0.551-0.728
				c-0.03-0.484-0.029-0.973-0.001-1.458c0.026-0.445-0.168-0.691-0.586-0.749c-0.676-0.095-1.353-0.225-2.03-0.228
				c-3.328-0.017-6.658-0.005-9.987,0.021c-0.496,0.003-0.995,0.124-1.488,0.214c-0.391,0.07-0.551,0.305-0.544,0.727
				c0.023,1.457,0.009,2.915,0.009,4.477c-1.232,0-2.445,0-3.659,0C155.815,283.161,155.815,281.469,155.815,279.776z"/>
			<path fill-rule="evenodd" clip-rule="evenodd" fill="none" stroke="#FF0000" stroke-width="0.001" stroke-miterlimit="10" d="
				M515.93,271.365c-0.3,0-0.529,0-0.759,0c-11.7,0-23.4,0.026-35.099-0.015c-3.982-0.014-7.939-0.387-11.758-1.641
				c-2.161-0.709-4.156-1.715-5.688-3.469c-1.271-1.458-1.929-3.175-1.934-5.088c-0.025-8.783-0.012-17.567-0.012-26.352
				c0-0.106,0.012-0.213,0.021-0.365c3.666,0,7.322,0,11.035,0c0,0.244,0,0.473,0,0.702c0,8.352,0,16.704-0.001,25.056
				c0,2.306,0.863,3.604,3.008,4.489c1.636,0.677,3.366,0.949,5.113,0.956c11.879,0.04,23.757,0.045,35.637,0.06
				c0.122,0,0.245-0.022,0.429-0.04c0-10.411,0-20.805,0-31.233c3.709,0,7.354,0,11.08,0c0,0.232,0,0.459,0,0.686
				c0,12.654-0.012,25.309,0.007,37.962c0.006,3.407-1.464,5.931-4.348,7.673c-2.256,1.361-4.753,2.022-7.318,2.47
				c-2.771,0.484-5.568,0.665-8.376,0.669c-9.072,0.01-18.145,0.004-27.216,0.004c-0.196,0-0.393,0-0.625,0c0-1.885,0-3.728,0-5.632
				c0.215-0.01,0.422-0.028,0.63-0.028c8.945-0.001,17.892,0.016,26.837-0.013c2.251-0.007,4.499-0.183,6.601-1.123
				c1.804-0.806,2.792-2.146,2.736-4.174C515.918,272.421,515.93,271.922,515.93,271.365z"/>
			<path fill-rule="evenodd" clip-rule="evenodd" fill="none" stroke="#FF0000" stroke-width="0.001" stroke-miterlimit="10" d="
				M243.386,271.366c-4.589,0-9.178,0.034-13.767-0.012c-3.548-0.035-7.074-0.343-10.517-1.274c-2.08-0.562-4.064-1.346-5.758-2.727
				c-2.032-1.657-3.087-3.796-3.09-6.43c-0.005-5.219,0.037-10.438-0.015-15.656c-0.035-3.612,1.6-6.178,4.667-7.917
				c2.384-1.353,5.001-1.979,7.682-2.39c3.01-0.463,6.042-0.576,9.084-0.573c8.313,0.008,16.628-0.018,24.942,0.012
				c3.745,0.014,7.471,0.305,11.108,1.29c2.17,0.588,4.227,1.425,5.962,2.905c1.908,1.628,2.865,3.724,2.88,6.207
				c0.032,5.417,0.038,10.834,0,16.251c-0.023,3.287-1.663,5.654-4.45,7.272c-2.436,1.415-5.122,2.062-7.875,2.48
				c-2.957,0.449-5.936,0.576-8.923,0.564C251.34,271.354,247.363,271.366,243.386,271.366z M243.42,265.701
				c0-0.017,0-0.033,0-0.049c4.677,0,9.354,0.024,14.031-0.014c1.712-0.014,3.401-0.284,5.013-0.914
				c2.154-0.842,3.003-2.084,3.003-4.393c0-5.003-0.027-10.005,0.014-15.006c0.017-2.003-0.926-3.298-2.666-4.104
				c-2.073-0.959-4.307-1.149-6.535-1.155c-8.905-0.021-17.811,0.007-26.716,0.048c-1.712,0.008-3.407,0.255-5.023,0.871
				c-2.054,0.784-3.262,2.1-3.233,4.546c0.06,5.002,0.013,10.005,0.027,15.007c0.001,0.479,0.053,0.978,0.193,1.432
				c0.469,1.516,1.656,2.299,3.051,2.82c1.88,0.703,3.853,0.886,5.833,0.899C234.747,265.723,239.084,265.701,243.42,265.701z"/>
			<path fill-rule="evenodd" clip-rule="evenodd" fill="none" stroke="#FF0000" stroke-width="0.001" stroke-miterlimit="10" d="
				M282.693,271.331c0-12.298,0-24.583,0-36.94c0.211,0,0.402,0,0.594,0c15.37,0,30.74-0.021,46.111,0.015
				c3.943,0.008,7.866,0.358,11.66,1.55c2.346,0.736,4.519,1.787,6.13,3.737c1.204,1.457,1.793,3.153,1.796,5.03
				c0.014,8.656,0.006,17.313,0.006,25.971c0,0.21,0,0.42,0,0.641c-3.719,0-7.365,0-11.074,0c0-0.241,0-0.452,0-0.662
				c0-8.388-0.029-16.775,0.018-25.161c0.015-2.503-1.285-3.774-3.208-4.515c-1.598-0.614-3.275-0.873-4.969-0.879
				c-11.913-0.04-23.827-0.047-35.74-0.063c-0.053,0-0.106,0.012-0.233,0.026c0,10.402,0,20.81,0,31.251
				C290.049,271.331,286.387,271.331,282.693,271.331z"/>
			<path fill-rule="evenodd" clip-rule="evenodd" fill="none" stroke="#FF0000" stroke-width="0.001" stroke-miterlimit="10" d="
				M438.629,271.337c-3.715,0-7.362,0-11.08,0c-0.01-0.185-0.029-0.373-0.029-0.562c0-8.567-0.004-17.134,0-25.701
				c0.002-3.601,1.753-6.134,4.844-7.816c2.586-1.408,5.4-2.094,8.294-2.388c2.587-0.264,5.192-0.388,7.794-0.463
				c2.644-0.076,5.291-0.017,7.938-0.017c0.193,0,0.388,0,0.615,0c0,1.892,0,3.737,0,5.66c-0.192,0-0.381,0-0.571,0
				c-2.843,0-5.687-0.031-8.53,0.012c-2.033,0.031-4.064,0.176-5.995,0.902c-0.518,0.195-1.025,0.449-1.485,0.753
				c-1.198,0.789-1.799,1.913-1.798,3.364c0.006,8.513,0.005,17.026,0.005,25.539C438.629,270.851,438.629,271.079,438.629,271.337z
				"/>
			<path fill-rule="evenodd" clip-rule="evenodd" fill="none" stroke="#FF0000" stroke-width="0.001" stroke-miterlimit="10" d="
				M390.732,284.814c-1.243,0-2.42,0-3.671,0c0-0.657,0-1.299,0-1.939c0-0.792-0.001-1.584,0-2.375
				c0.001-0.765,0.154-1.089,0.911-1.251c1.171-0.252,2.367-0.502,3.559-0.524c4.045-0.075,8.095-0.088,12.141-0.04
				c1.373,0.017,2.756,0.216,4.113,0.454c1.104,0.195,1.25,0.483,1.25,1.585c0,0.307-0.001,0.612-0.001,0.918
				c0,0.906-0.169,1.2-1.075,1.402c-0.961,0.213-1.945,0.422-2.922,0.439c-3.866,0.07-7.733,0.065-11.601,0.088
				c-0.052,0-0.104-0.023-0.192-0.045c0-0.201,0-0.407,0-0.708c0.197,0,0.403,0,0.609,0c3.004,0,6.008,0.011,9.012-0.01
				c0.623-0.005,1.249-0.115,1.869-0.207c0.453-0.065,0.684-0.326,0.644-0.823c-0.035-0.446-0.038-0.9,0-1.348
				c0.041-0.502-0.193-0.754-0.65-0.812c-0.747-0.095-1.497-0.22-2.247-0.227c-2.967-0.025-5.937-0.025-8.903,0.002
				c-0.75,0.008-1.499,0.138-2.244,0.239c-0.442,0.06-0.618,0.33-0.608,0.794c0.025,1.259,0.008,2.519,0.008,3.777
				C390.732,284.396,390.732,284.59,390.732,284.814z"/>
			<path fill-rule="evenodd" clip-rule="evenodd" fill="none" stroke="#FF0000" stroke-width="0.001" stroke-miterlimit="10" d="
				M370.4,280.746c0,0.269,0,0.46,0,0.72c-0.223,0-0.416-0.001-0.609,0c-3.095,0.011-6.19,0.011-9.285,0.046
				c-0.605,0.007-1.213,0.128-1.808,0.252c-0.166,0.034-0.29,0.268-0.434,0.41c0.139,0.126,0.261,0.327,0.42,0.363
				c0.54,0.122,1.094,0.258,1.643,0.261c3.581,0.014,7.163,0.029,10.744-0.027c1.746-0.028,1.793-0.147,1.792-1.863
				c-0.002-1.2-0.027-1.251-1.223-1.415c-0.585-0.081-1.183-0.104-1.774-0.105c-4.158-0.009-8.315-0.005-12.474-0.005
				c-0.231,0-0.464,0-0.756,0c-0.015-0.228-0.026-0.416-0.043-0.674c0.212-0.016,0.4-0.042,0.588-0.042
				c4.662-0.003,9.324-0.038,13.985,0.02c1.409,0.019,2.827,0.231,4.219,0.479c1.023,0.184,1.142,0.452,1.142,1.495
				c0.001,0.342,0.001,0.685,0.001,1.026c-0.001,0.844-0.138,1.13-0.959,1.315c-1.047,0.236-2.122,0.471-3.187,0.482
				c-4.533,0.053-9.066,0.046-13.599,0.005c-0.979-0.009-1.958-0.234-2.934-0.385c-0.243-0.037-0.516-0.116-0.696-0.269
				c-0.225-0.189-0.499-0.471-0.507-0.721c-0.007-0.217,0.29-0.578,0.519-0.642c0.911-0.253,1.844-0.557,2.776-0.586
				c3.308-0.104,6.619-0.105,9.929-0.141C368.695,280.738,369.521,280.746,370.4,280.746z"/>
			<path fill-rule="evenodd" clip-rule="evenodd" fill="none" stroke="#FF0000" stroke-width="0.001" stroke-miterlimit="10" d="
				M423.239,279.438c0,0.998,0,1.964,0,2.932c0.001,1.21,0.001,1.211-1.219,1.21c-0.737-0.001-1.474-0.005-2.212-0.009
				c-0.052-0.002-0.104-0.021-0.197-0.041c0-2.305,0-4.613,0-6.959c1.188,0,2.363,0,3.629,0c0,0.367-0.003,0.72,0.002,1.073
				c0.016,1.172-0.167,1.014,1.04,1.015c3.867,0.008,7.735-0.029,11.604,0.021c1.357,0.017,2.715,0.225,4.072,0.359
				c0.229,0.022,0.455,0.104,0.676,0.183c0.729,0.262,0.868,0.465,0.869,1.223c0,0.899-0.009,1.799,0.004,2.699
				c0.005,0.319-0.104,0.449-0.436,0.442c-0.918-0.014-1.836-0.019-2.753,0c-0.352,0.007-0.475-0.114-0.469-0.465
				c0.018-0.899-0.016-1.8,0.015-2.698c0.016-0.467-0.167-0.731-0.607-0.791c-0.694-0.093-1.391-0.214-2.085-0.218
				c-3.796-0.021-7.592-0.011-11.388-0.009C423.627,279.404,423.469,279.423,423.239,279.438z"/>
			<path fill-rule="evenodd" clip-rule="evenodd" fill="none" stroke="#FF0000" stroke-width="0.001" stroke-miterlimit="10" d="
				M206.602,283.574c0-1.126-0.016-2.15,0.009-3.172c0.011-0.442-0.165-0.699-0.581-0.76c-0.674-0.098-1.352-0.227-2.028-0.23
				c-3.868-0.021-7.736-0.011-11.605-0.01c-0.106,0-0.214,0.018-0.393,0.034c0,1.356,0,2.711,0,4.135
				c-1.2,0-2.327,0.007-3.454-0.013c-0.079-0.002-0.225-0.184-0.225-0.281c-0.002-2.212,0.013-4.423,0.024-6.636
				c0.001-0.013,0.023-0.025,0.066-0.073c1.146,0,2.322,0,3.555,0c0,0.681,0,1.339,0,2.057c0.276,0.014,0.503,0.035,0.729,0.035
				c3.976,0.002,7.952-0.027,11.928,0.018c1.324,0.015,2.647,0.206,3.969,0.341c0.299,0.03,0.593,0.146,0.88,0.248
				c0.524,0.188,0.803,0.516,0.768,1.134c-0.051,0.915-0.001,1.835-0.024,2.752c-0.004,0.144-0.169,0.401-0.264,0.404
				C208.862,283.585,207.77,283.574,206.602,283.574z"/>
			<path fill-rule="evenodd" clip-rule="evenodd" fill="none" stroke="#FF0000" stroke-width="0.001" stroke-miterlimit="10" d="
				M282.179,278.587c2.714,0.079,5.429,0.134,8.141,0.253c0.673,0.029,1.348,0.227,1.998,0.421c0.665,0.199,0.815,0.474,0.817,1.156
				c0,0.468-0.029,0.938,0.009,1.403c0.051,0.611-0.252,0.98-0.781,1.13c-0.707,0.199-1.434,0.434-2.155,0.447
				c-4.459,0.083-8.92,0.134-13.38,0.136c-1.288,0.002-2.576-0.193-3.863-0.303c-0.142-0.012-0.282-0.057-0.421-0.093
				c-1.232-0.323-1.337-0.46-1.336-1.732c0-0.342,0.031-0.688-0.007-1.025c-0.07-0.619,0.24-1.004,0.783-1.108
				c1.213-0.232,2.437-0.499,3.663-0.548c2.173-0.088,4.353-0.024,6.529-0.024C282.177,278.662,282.178,278.625,282.179,278.587z
				 M282.185,279.425c0-0.008,0-0.016,0-0.023c-1.511,0-3.022-0.026-4.532,0.012c-0.768,0.019-1.533,0.139-2.295,0.246
				c-0.364,0.052-0.546,0.293-0.526,0.69c0.023,0.484,0.028,0.972-0.001,1.457c-0.029,0.469,0.188,0.727,0.62,0.787
				c0.655,0.094,1.316,0.207,1.977,0.213c3.111,0.021,6.224,0.015,9.335,0.006c0.502-0.001,1.007-0.037,1.506-0.092
				c1.116-0.126,1.177-0.204,1.178-1.332c0-1.794-0.125-1.919-1.973-1.963c-0.019-0.001-0.036-0.001-0.054-0.001
				C285.674,279.425,283.93,279.425,282.185,279.425z"/>
			<path fill-rule="evenodd" clip-rule="evenodd" fill="none" stroke="#FF0000" stroke-width="0.001" stroke-miterlimit="10" d="
				M231.831,278.586c2.704,0.08,5.436,0.125,8.162,0.263c0.751,0.038,1.497,0.328,2.23,0.553c0.376,0.114,0.54,0.426,0.521,0.847
				c-0.026,0.555-0.037,1.116,0.003,1.671c0.039,0.524-0.203,0.855-0.655,0.979c-0.774,0.212-1.564,0.474-2.356,0.5
				c-3.088,0.107-6.178,0.163-9.269,0.17c-2.227,0.005-4.454-0.072-6.68-0.171c-0.689-0.03-1.384-0.21-2.055-0.396
				c-0.758-0.211-0.911-0.472-0.913-1.239c-0.002-0.504,0.018-1.008-0.006-1.511c-0.021-0.441,0.163-0.76,0.562-0.876
				c0.735-0.217,1.484-0.495,2.237-0.532C226.341,278.71,229.071,278.666,231.831,278.586z M231.795,279.424
				c0,0.014,0,0.029,0,0.044c-1.979,0-3.96-0.056-5.936,0.02c-1.314,0.05-1.37,0.196-1.37,1.479c0,1.662,0.021,1.744,1.731,1.794
				c2.392,0.07,4.785,0.052,7.178,0.053c1.385,0.002,2.772,0.012,4.154-0.061c1.479-0.077,1.557-0.204,1.558-1.655
				c0.001-1.397-0.092-1.501-1.487-1.633c-0.214-0.02-0.431-0.038-0.646-0.038C235.25,279.423,233.522,279.424,231.795,279.424z"/>
			<path fill-rule="evenodd" clip-rule="evenodd" fill="none" stroke="#FF0000" stroke-width="0.001" stroke-miterlimit="10" d="
				M257.499,276.564c0,0.545,0.022,1.062-0.007,1.578c-0.023,0.401,0.112,0.535,0.518,0.526c1.114-0.023,2.23-0.008,3.346-0.008
				c0.255,0,0.503-0.033,0.503,0.367c-0.001,0.391-0.232,0.376-0.497,0.376c-1.258-0.003-2.516-0.002-3.862-0.002
				c0,0.217,0,0.404,0,0.594c0,1.044-0.006,2.087,0.003,3.13c0.003,0.302-0.066,0.466-0.417,0.459c-0.846-0.019-1.691-0.018-2.536,0
				c-0.35,0.007-0.42-0.155-0.416-0.459c0.011-1.025,0.004-2.051,0.004-3.077c0-0.192,0-0.384,0-0.647c-0.526,0-0.988,0.001-1.451,0
				c-0.63-0.002-0.63-0.002-0.524-0.741c0.495,0,1.008-0.015,1.52,0.006c0.353,0.015,0.478-0.119,0.462-0.471
				c-0.023-0.533-0.007-1.067-0.007-1.631C255.282,276.564,256.353,276.564,257.499,276.564z"/>
			<path fill-rule="evenodd" clip-rule="evenodd" fill="none" stroke="#FF0000" stroke-width="0.001" stroke-miterlimit="10" d="
				M339.853,283.545c-1.252,0-2.429,0-3.659,0c0-1.214-0.047-2.399,0.037-3.574c0.019-0.259,0.467-0.619,0.777-0.7
				c0.916-0.237,1.857-0.457,2.798-0.505c1.901-0.097,3.811-0.074,5.716-0.107c0.273-0.004,0.438,0.05,0.439,0.381
				c0,0.342-0.177,0.368-0.446,0.367c-1.187-0.002-2.373,0.009-3.56,0.02c-0.233,0.002-0.468,0.017-0.7,0.04
				c-1.326,0.135-1.402,0.221-1.402,1.529C339.852,281.821,339.853,282.646,339.853,283.545z"/>
			<path fill-rule="evenodd" clip-rule="evenodd" fill="none" stroke="#FF0000" stroke-width="0.001" stroke-miterlimit="10" d="
				M243.42,265.701c-4.336,0-8.673,0.021-13.009-0.011c-1.98-0.014-3.953-0.196-5.833-0.899c-1.395-0.521-2.582-1.305-3.051-2.82
				c-0.141-0.454-0.192-0.952-0.193-1.432c-0.015-5.002,0.032-10.005-0.027-15.007c-0.028-2.446,1.18-3.762,3.233-4.546
				c1.616-0.616,3.312-0.863,5.023-0.871c8.905-0.041,17.811-0.068,26.716-0.048c2.229,0.006,4.462,0.196,6.535,1.155
				c1.74,0.806,2.683,2.101,2.666,4.104c-0.041,5.001-0.014,10.003-0.014,15.006c0,2.309-0.849,3.551-3.003,4.393
				c-1.611,0.63-3.301,0.9-5.013,0.914c-4.677,0.038-9.354,0.014-14.031,0.014C243.42,265.668,243.42,265.685,243.42,265.701z"/>
			<path fill-rule="evenodd" clip-rule="evenodd" fill="none" stroke="#FF0000" stroke-width="0.001" stroke-miterlimit="10" d="
				M282.185,279.425c1.745,0,3.489,0,5.234,0c0.018,0,0.035,0,0.054,0.001c1.848,0.044,1.973,0.169,1.973,1.963
				c-0.001,1.128-0.062,1.206-1.178,1.332c-0.499,0.055-1.004,0.091-1.506,0.092c-3.111,0.009-6.224,0.016-9.335-0.006
				c-0.66-0.006-1.321-0.119-1.977-0.213c-0.433-0.061-0.649-0.318-0.62-0.787c0.029-0.485,0.024-0.973,0.001-1.457
				c-0.02-0.397,0.162-0.639,0.526-0.69c0.762-0.107,1.527-0.228,2.295-0.246c1.51-0.038,3.021-0.012,4.532-0.012
				C282.185,279.409,282.185,279.417,282.185,279.425z"/>
			<path fill-rule="evenodd" clip-rule="evenodd" fill="none" stroke="#FF0000" stroke-width="0.001" stroke-miterlimit="10" d="
				M231.795,279.424c1.728,0,3.455-0.001,5.183,0.002c0.215,0,0.432,0.019,0.646,0.038c1.396,0.132,1.488,0.235,1.487,1.633
				c-0.001,1.451-0.078,1.578-1.558,1.655c-1.382,0.072-2.77,0.062-4.154,0.061c-2.393-0.001-4.786,0.018-7.178-0.053
				c-1.71-0.05-1.731-0.132-1.731-1.794c0-1.282,0.056-1.429,1.37-1.479c1.976-0.075,3.957-0.02,5.936-0.02
				C231.795,279.453,231.795,279.438,231.795,279.424z"/>
		</g>
	</g>
</g>
<g id="Bottom_side" display="none">
	<g display="inline">
		
			<polyline fill="none" stroke="#FF0000" stroke-width="0.001" stroke-linecap="round" stroke-linejoin="round" stroke-miterlimit="10" points="
			20.159,412.553 20.159,367.192 507.007,367.192 507.007,412.553 		"/>
		
			<line fill="none" stroke="#FF0000" stroke-width="0.001" stroke-linecap="round" stroke-linejoin="round" stroke-miterlimit="10" x1="20.162" y1="412.553" x2="507.012" y2="412.553"/>
		
			<ellipse fill="none" stroke="#FF00FF" stroke-width="0.001" stroke-linecap="round" stroke-linejoin="round" stroke-miterlimit="10" cx="263.521" cy="389.873" rx="7.236" ry="7.417"/>
	</g>
</g>
<g id="Front_Panel_1_x2F_8">
	<g id="CIRCLE_30_">
		
			<path fill="none" stroke="#000000" stroke-width="0.001" stroke-linecap="round" stroke-linejoin="round" stroke-miterlimit="10" d="
			M657.42,760.719c-4.575,0-8.282,2.74-8.282,6.12s3.707,6.12,8.282,6.12c4.571,0,8.278-2.74,8.278-6.12
			S661.991,760.719,657.42,760.719L657.42,760.719z"/>
	</g>
	<g id="CIRCLE_29_">
		
			<path fill="none" stroke="#000000" stroke-width="0.001" stroke-linecap="round" stroke-linejoin="round" stroke-miterlimit="10" d="
			M78.459,761.994c-4.573,0-8.28,2.74-8.28,6.12s3.707,6.12,8.28,6.12c4.574,0,8.28-2.74,8.28-6.12S83.033,761.994,78.459,761.994
			L78.459,761.994z"/>
	</g>
	<g id="LINE_14_">
		
			<line fill="none" stroke="#000000" stroke-width="0.001" stroke-linecap="round" stroke-linejoin="round" stroke-miterlimit="10" x1="50.383" y1="768.114" x2="50.383" y2="479.375"/>
	</g>
	<g id="LINE_13_">
		
			<line fill="none" stroke="#000000" stroke-width="0.001" stroke-linecap="round" stroke-linejoin="round" stroke-miterlimit="10" x1="655.691" y1="796.461" x2="78.729" y2="796.461"/>
	</g>
	<g id="LINE_12_">
		
			<line fill="none" stroke="#000000" stroke-width="0.001" stroke-linecap="round" stroke-linejoin="round" stroke-miterlimit="10" x1="684.039" y1="479.375" x2="684.039" y2="768.114"/>
	</g>
	<g id="LINE_11_">
		
			<line fill="none" stroke="#000000" stroke-width="0.001" stroke-linecap="round" stroke-linejoin="round" stroke-miterlimit="10" x1="78.73" y1="451.029" x2="657.691" y2="451.029"/>
	</g>
	<g id="ARC_4_">
		
			<path fill="none" stroke="#000000" stroke-width="0.001" stroke-linecap="round" stroke-linejoin="round" stroke-miterlimit="10" d="
			M50.383,768.114c0,15.655,12.691,28.347,28.347,28.347"/>
	</g>
	<g id="ARC_3_">
		
			<path fill="none" stroke="#000000" stroke-width="0.001" stroke-linecap="round" stroke-linejoin="round" stroke-miterlimit="10" d="
			M78.729,451.029c-15.655,0-28.347,12.691-28.347,28.346"/>
	</g>
	<g id="ARC_2_">
		
			<path fill="none" stroke="#000000" stroke-width="0.001" stroke-linecap="round" stroke-linejoin="round" stroke-miterlimit="10" d="
			M684.039,479.375c0-15.654-12.691-28.346-28.348-28.346"/>
	</g>
	<g id="ARC_1_">
		
			<path fill="none" stroke="#000000" stroke-width="0.001" stroke-linecap="round" stroke-linejoin="round" stroke-miterlimit="10" d="
			M655.691,796.461c15.656,0,28.348-12.691,28.348-28.347"/>
	</g>
	<g id="CIRCLE_28_">
		
			<path fill="none" stroke="#000000" stroke-width="0.001" stroke-linecap="round" stroke-linejoin="round" stroke-miterlimit="10" d="
			M87.005,479.375c0-3.38-3.707-6.119-8.28-6.119s-8.28,2.739-8.28,6.119c0,3.381,3.707,6.121,8.28,6.121
			S87.005,482.756,87.005,479.375L87.005,479.375z"/>
	</g>
	<g id="CIRCLE_27_">
		
			<path fill="none" stroke="#000000" stroke-width="0.001" stroke-linecap="round" stroke-linejoin="round" stroke-miterlimit="10" d="
			M665.972,479.375c0-3.38-3.706-6.119-8.28-6.119c-4.573,0-8.28,2.739-8.28,6.119c0,3.381,3.707,6.121,8.28,6.121
			C662.266,485.496,665.972,482.756,665.972,479.375L665.972,479.375z"/>
	</g>
</g>
<g id="Back_Cover_1_x2F_8">
	
		<rect x="111.677" y="79.748" fill="none" stroke="#FF00FF" stroke-width="0.001" stroke-linecap="round" stroke-linejoin="round" stroke-miterlimit="10" width="512.05" height="345.434"/>
	<g id="CIRCLE_13_">
		
			<path fill="none" stroke="#FF00FF" stroke-width="0.001" stroke-linecap="round" stroke-linejoin="round" stroke-miterlimit="10" d="
			M138.564,143.321c0-2.982-2.417-5.399-5.4-5.399s-5.4,2.417-5.4,5.399s2.417,5.4,5.4,5.4S138.564,146.303,138.564,143.321
			L138.564,143.321z"/>
	</g>
	<g id="CIRCLE_12_">
		
			<path fill="none" stroke="#FF00FF" stroke-width="0.001" stroke-linecap="round" stroke-linejoin="round" stroke-miterlimit="10" d="
			M138.708,359.283c0-2.982-2.417-5.399-5.4-5.399s-5.4,2.417-5.4,5.399c0,2.983,2.417,5.4,5.4,5.4S138.708,362.266,138.708,359.283
			L138.708,359.283z"/>
	</g>
	<g id="CIRCLE_7_">
		
			<path fill="none" stroke="#FF00FF" stroke-width="0.001" stroke-linecap="round" stroke-linejoin="round" stroke-miterlimit="10" d="
			M608.004,143.321c0-2.982-2.417-5.399-5.4-5.399s-5.4,2.417-5.4,5.399c0,2.983,2.417,5.4,5.4,5.4S608.004,146.304,608.004,143.321
			L608.004,143.321z"/>
	</g>
	<g id="CIRCLE_6_">
		
			<path fill="none" stroke="#FF00FF" stroke-width="0.001" stroke-linecap="round" stroke-linejoin="round" stroke-miterlimit="10" d="
			M608.155,359.283c0-2.981-2.417-5.399-5.399-5.399c-2.983,0-5.4,2.418-5.4,5.399c0,2.982,2.417,5.4,5.4,5.4
			C605.738,364.683,608.155,362.265,608.155,359.283L608.155,359.283z"/>
	</g>
</g>
<g id="Supports" display="none">
	
		<rect x="880.756" y="11.408" display="inline" fill="none" stroke="#FF00FF" stroke-width="0.001" stroke-linecap="round" stroke-linejoin="round" stroke-miterlimit="10" width="12.24" height="36"/>
	
		<rect x="868.516" y="11.408" display="inline" fill="none" stroke="#FF00FF" stroke-width="0.001" stroke-linecap="round" stroke-linejoin="round" stroke-miterlimit="10" width="12.24" height="36"/>
	
		<rect x="856.275" y="11.408" display="inline" fill="none" stroke="#FF00FF" stroke-width="0.001" stroke-linecap="round" stroke-linejoin="round" stroke-miterlimit="10" width="12.24" height="36"/>
	
		<rect x="844.035" y="11.408" display="inline" fill="none" stroke="#FF00FF" stroke-width="0.001" stroke-linecap="round" stroke-linejoin="round" stroke-miterlimit="10" width="12.24" height="36"/>
	
		<rect x="831.795" y="11.408" display="inline" fill="none" stroke="#FF00FF" stroke-width="0.001" stroke-linecap="round" stroke-linejoin="round" stroke-miterlimit="10" width="12.24" height="144"/>
	
		<rect x="819.555" y="11.408" display="inline" fill="none" stroke="#FF00FF" stroke-width="0.001" stroke-linecap="round" stroke-linejoin="round" stroke-miterlimit="10" width="12.24" height="144"/>
	
		<rect x="807.314" y="11.408" display="inline" fill="none" stroke="#FF00FF" stroke-width="0.001" stroke-linecap="round" stroke-linejoin="round" stroke-miterlimit="10" width="12.24" height="144"/>
	
		<rect x="795.074" y="11.408" display="inline" fill="none" stroke="#FF00FF" stroke-width="0.001" stroke-linecap="round" stroke-linejoin="round" stroke-miterlimit="10" width="12.24" height="144"/>
	
		<rect x="782.834" y="11.408" display="inline" fill="none" stroke="#FF00FF" stroke-width="0.001" stroke-linecap="round" stroke-linejoin="round" stroke-miterlimit="10" width="12.24" height="144"/>
	
		<rect x="770.594" y="11.408" display="inline" fill="none" stroke="#FF00FF" stroke-width="0.001" stroke-linecap="round" stroke-linejoin="round" stroke-miterlimit="10" width="12.24" height="144"/>
</g>
<g id="LED_PANEL" display="none">
	<g display="inline">
		<g>
			<g>
				<g id="LINE_8_">
					
						<line fill="none" stroke="#FF0000" stroke-width="0.001" stroke-linecap="round" stroke-linejoin="round" stroke-miterlimit="10" x1="97.017" y1="386.94" x2="97.017" y2="115.665"/>
				</g>
				<g id="LINE_7_">
					
						<line fill="none" stroke="#FF0000" stroke-width="0.001" stroke-linecap="round" stroke-linejoin="round" stroke-miterlimit="10" x1="97.314" y1="115.961" x2="640.122" y2="115.961"/>
				</g>
			</g>
			<g id="LINE_6_">
				
					<line fill="none" stroke="#FF0000" stroke-width="0.001" stroke-linecap="round" stroke-linejoin="round" stroke-miterlimit="10" x1="640.418" y1="386.94" x2="97.017" y2="386.94"/>
			</g>
		</g>
		<g id="LINE_5_">
			
				<line fill="none" stroke="#FF0000" stroke-width="0.001" stroke-linecap="round" stroke-linejoin="round" stroke-miterlimit="10" x1="640.122" y1="386.643" x2="640.122" y2="115.961"/>
		</g>
	</g>
</g>
</svg>
