<?xml version="1.0" encoding="iso-8859-1"?>
<!-- Generator: Adobe Illustrator 16.0.4, SVG Export Plug-In . SVG Version: 6.00 Build 0)  -->
<!DOCTYPE svg PUBLIC "-//W3C//DTD SVG 1.1//EN" "http://www.w3.org/Graphics/SVG/1.1/DTD/svg11.dtd">
<svg version="1.1" xmlns="http://www.w3.org/2000/svg" xmlns:xlink="http://www.w3.org/1999/xlink" x="0px" y="0px" width="1728px"
	 height="1296px" viewBox="0 0 1728 1296" style="enable-background:new 0 0 1728 1296;" xml:space="preserve">
<g id="Full_Outline">
	<rect x="18" y="18" style="fill:none;stroke:#FF0000;stroke-width:0.0028;stroke-miterlimit:10;" width="1638" height="581.103"/>
</g>
<g id="Connecting_Outline" style="display:none;">
	
		<rect x="18" y="18" style="display:inline;fill:none;stroke:#FF0000;stroke-width:0.0028;stroke-miterlimit:10;" width="1268.471" height="581.103"/>
</g>
<g id="Holes_x2C__Part_2">
	<path style="fill:none;stroke:#FF0000;stroke-width:0.0028;stroke-miterlimit:10;" d="M1276.98,351.117
		c0,5.375-4.359,9.737-9.737,9.737s-9.737-4.362-9.737-9.737c0-5.38,4.359-9.738,9.737-9.738S1276.98,345.737,1276.98,351.117z"/>
	<circle style="fill:none;stroke:#FF0000;stroke-width:0.0028;stroke-miterlimit:10;" cx="1267.243" cy="303.254" r="9.737"/>
	<circle style="fill:none;stroke:#FF0000;stroke-width:0.0028;stroke-miterlimit:10;" cx="1267.243" cy="259.581" r="8.368"/>
	<circle style="fill:none;stroke:#FF0000;stroke-width:0.0028;stroke-miterlimit:10;" cx="1313.407" cy="305.095" r="8.369"/>
	<circle style="fill:none;stroke:#FF0000;stroke-width:0.0028;stroke-miterlimit:10;" cx="1310.346" cy="531.24" r="18.61"/>
	<circle style="fill:none;stroke:#FF0000;stroke-width:0.0028;stroke-miterlimit:10;" cx="1357.88" cy="532.178" r="18.538"/>
	<circle style="fill:none;stroke:#FF0000;stroke-width:0.0028;stroke-miterlimit:10;" cx="1401.593" cy="532.035" r="17.24"/>
	<circle style="fill:none;stroke:#FF0000;stroke-width:0.0028;stroke-miterlimit:10;" cx="1266.706" cy="532.178" r="17.24"/>
	<circle style="fill:none;stroke:#FF0000;stroke-width:0.0028;stroke-miterlimit:10;" cx="1310.995" cy="486.807" r="16.7"/>
	<circle style="fill:none;stroke:#FF0000;stroke-width:0.0028;stroke-miterlimit:10;" cx="1357.158" cy="486.807" r="16.699"/>
	<circle style="fill:none;stroke:#FF0000;stroke-width:0.0028;stroke-miterlimit:10;" cx="1265.048" cy="486.807" r="12.983"/>
	<circle style="fill:none;stroke:#FF0000;stroke-width:0.0028;stroke-miterlimit:10;" cx="1312.726" cy="440.352" r="12.984"/>
	<circle style="fill:none;stroke:#FF0000;stroke-width:0.0028;stroke-miterlimit:10;" cx="1357.159" cy="440.352" r="12.984"/>
	<circle style="fill:none;stroke:#FF0000;stroke-width:0.0028;stroke-miterlimit:10;" cx="1401.594" cy="486.807" r="12.984"/>
	<circle style="fill:none;stroke:#FF0000;stroke-width:0.0028;stroke-miterlimit:10;" cx="1447.117" cy="532.035" r="12.984"/>
	<circle style="fill:none;stroke:#FF0000;stroke-width:0.0028;stroke-miterlimit:10;" cx="1493.495" cy="532.178" r="9.737"/>
	<circle style="fill:none;stroke:#FF0000;stroke-width:0.0028;stroke-miterlimit:10;" cx="1447.117" cy="486.807" r="9.738"/>
	<circle style="fill:none;stroke:#FF0000;stroke-width:0.0028;stroke-miterlimit:10;" cx="1401.594" cy="440.352" r="9.738"/>
	<circle style="fill:none;stroke:#FF0000;stroke-width:0.0028;stroke-miterlimit:10;" cx="1355.644" cy="394.621" r="9.737"/>
	<circle style="fill:none;stroke:#FF0000;stroke-width:0.0028;stroke-miterlimit:10;" cx="1312.726" cy="394.621" r="9.738"/>
	<circle style="fill:none;stroke:#FF0000;stroke-width:0.0028;stroke-miterlimit:10;" cx="1264.705" cy="440.352" r="9.738"/>
	<circle style="fill:none;stroke:#FF0000;stroke-width:0.0028;stroke-miterlimit:10;" cx="1268.076" cy="392.891" r="8.367"/>
	<circle style="fill:none;stroke:#FF0000;stroke-width:0.0028;stroke-miterlimit:10;" cx="1314.385" cy="351.479" r="8.367"/>
	<circle style="fill:none;stroke:#FF0000;stroke-width:0.0028;stroke-miterlimit:10;" cx="1354.273" cy="351.479" r="8.367"/>
	<circle style="fill:none;stroke:#FF0000;stroke-width:0.0028;stroke-miterlimit:10;" cx="1399.862" cy="392.891" r="8.368"/>
	<circle style="fill:none;stroke:#FF0000;stroke-width:0.0028;stroke-miterlimit:10;" cx="1447.117" cy="440.352" r="8.367"/>
	<circle style="fill:none;stroke:#FF0000;stroke-width:0.0028;stroke-miterlimit:10;" cx="1491.765" cy="485.436" r="8.368"/>
	<circle style="fill:none;stroke:#FF0000;stroke-width:0.0028;stroke-miterlimit:10;" cx="1538.003" cy="532.035" r="8.367"/>
	<circle style="fill:none;stroke:#FF0000;stroke-width:0.0028;stroke-miterlimit:10;" cx="1313.664" cy="124.452" r="18.826"/>
	<circle style="fill:none;stroke:#FF0000;stroke-width:0.0028;stroke-miterlimit:10;" cx="1359.829" cy="123.802" r="18.755"/>
	<circle style="fill:none;stroke:#FF0000;stroke-width:0.0028;stroke-miterlimit:10;" cx="1360.55" cy="80.668" r="20.63"/>
	<circle style="fill:none;stroke:#FF0000;stroke-width:0.0028;stroke-miterlimit:10;" cx="1313.016" cy="80.668" r="20.629"/>
	<circle style="fill:none;stroke:#FF0000;stroke-width:0.0028;stroke-miterlimit:10;" cx="1451.147" cy="77.639" r="16.88"/>
	<circle style="fill:none;stroke:#FF0000;stroke-width:0.0028;stroke-miterlimit:10;" cx="1404.263" cy="124.452" r="17.239"/>
	<circle style="fill:none;stroke:#FF0000;stroke-width:0.0028;stroke-miterlimit:10;" cx="1269.374" cy="123.802" r="16.7"/>
	<circle style="fill:none;stroke:#FF0000;stroke-width:0.0028;stroke-miterlimit:10;" cx="1267.716" cy="80.668" r="18.754"/>
	<circle style="fill:none;stroke:#FF0000;stroke-width:0.0028;stroke-miterlimit:10;" cx="1405.993" cy="78.937" r="18.755"/>
	<circle style="fill:none;stroke:#FF0000;stroke-width:0.0028;stroke-miterlimit:10;" cx="1313.015" cy="170.108" r="16.7"/>
	<circle style="fill:none;stroke:#FF0000;stroke-width:0.0028;stroke-miterlimit:10;" cx="1359.827" cy="170.108" r="16.7"/>
	<circle style="fill:none;stroke:#FF0000;stroke-width:0.0028;stroke-miterlimit:10;" cx="1497.679" cy="77.639" r="12.983"/>
	<circle style="fill:none;stroke:#FF0000;stroke-width:0.0028;stroke-miterlimit:10;" cx="1451.113" cy="123.802" r="12.984"/>
	<circle style="fill:none;stroke:#FF0000;stroke-width:0.0028;stroke-miterlimit:10;" cx="1404.263" cy="170.108" r="12.983"/>
	<circle style="fill:none;stroke:#FF0000;stroke-width:0.0028;stroke-miterlimit:10;" cx="1358.097" cy="216.851" r="12.983"/>
	<circle style="fill:none;stroke:#FF0000;stroke-width:0.0028;stroke-miterlimit:10;" cx="1313.664" cy="216.851" r="12.984"/>
	<circle style="fill:none;stroke:#FF0000;stroke-width:0.0028;stroke-miterlimit:10;" cx="1269.374" cy="170.108" r="12.983"/>
	<circle style="fill:none;stroke:#FF0000;stroke-width:0.0028;stroke-miterlimit:10;" cx="1357.376" cy="258.474" r="9.737"/>
	<path style="fill:none;stroke:#FF0000;stroke-width:0.0028;stroke-miterlimit:10;" d="M1414.002,216.851
		c0,5.376-4.363,9.738-9.738,9.738c-5.379,0-9.738-4.362-9.738-9.738c0-5.379,4.359-9.738,9.738-9.738
		C1409.639,207.113,1414.002,211.472,1414.002,216.851z"/>
	<circle style="fill:none;stroke:#FF0000;stroke-width:0.0028;stroke-miterlimit:10;" cx="1451.113" cy="170.108" r="9.738"/>
	<circle style="fill:none;stroke:#FF0000;stroke-width:0.0028;stroke-miterlimit:10;" cx="1313.664" cy="258.474" r="9.738"/>
	<circle style="fill:none;stroke:#FF0000;stroke-width:0.0028;stroke-miterlimit:10;" cx="1269.374" cy="216.851" r="9.737"/>
	<circle style="fill:none;stroke:#FF0000;stroke-width:0.0028;stroke-miterlimit:10;" cx="1496.086" cy="124.452" r="9.738"/>
	<circle style="fill:none;stroke:#FF0000;stroke-width:0.0028;stroke-miterlimit:10;" cx="1540.673" cy="78.937" r="9.737"/>
	<circle style="fill:none;stroke:#FF0000;stroke-width:0.0028;stroke-miterlimit:10;" cx="1537.433" cy="301.418" r="19.476"/>
	<circle style="fill:none;stroke:#FF0000;stroke-width:0.0028;stroke-miterlimit:10;" cx="1537.036" cy="351.657" r="19.079"/>
	<circle style="fill:none;stroke:#FF0000;stroke-width:0.0028;stroke-miterlimit:10;" cx="1581.722" cy="350.901" r="20.629"/>
	<circle style="fill:none;stroke:#FF0000;stroke-width:0.0028;stroke-miterlimit:10;" cx="1581.722" cy="303.149" r="20.629"/>
	<path style="fill:none;stroke:#FF0000;stroke-width:0.0028;stroke-miterlimit:10;" d="M1606.79,304.418"/>
	<path style="fill:none;stroke:#FF0000;stroke-width:0.0028;stroke-miterlimit:10;" d="M1606.79,352.055"/>
	<circle style="fill:none;stroke:#FF0000;stroke-width:0.0028;stroke-miterlimit:10;" cx="1585.112" cy="211.326" r="17.24"/>
	<circle style="fill:none;stroke:#FF0000;stroke-width:0.0028;stroke-miterlimit:10;" cx="1537.433" cy="256.264" r="17.24"/>
	<circle style="fill:none;stroke:#FF0000;stroke-width:0.0028;stroke-miterlimit:10;" cx="1537.974" cy="396.02" r="16.699"/>
	<circle style="fill:none;stroke:#FF0000;stroke-width:0.0028;stroke-miterlimit:10;" cx="1585.111" cy="441.354" r="16.7"/>
	<circle style="fill:none;stroke:#FF0000;stroke-width:0.0028;stroke-miterlimit:10;" cx="1582.804" cy="255.038" r="18.754"/>
	<circle style="fill:none;stroke:#FF0000;stroke-width:0.0028;stroke-miterlimit:10;" cx="1583.453" cy="398.22" r="18.755"/>
	<circle style="fill:none;stroke:#FF0000;stroke-width:0.0028;stroke-miterlimit:10;" cx="1491.996" cy="350.901" r="16.7"/>
	<circle style="fill:none;stroke:#FF0000;stroke-width:0.0028;stroke-miterlimit:10;" cx="1491.996" cy="303.149" r="16.7"/>
	<circle style="fill:none;stroke:#FF0000;stroke-width:0.0028;stroke-miterlimit:10;" cx="1585.111" cy="487.659" r="12.984"/>
	<circle style="fill:none;stroke:#FF0000;stroke-width:0.0028;stroke-miterlimit:10;" cx="1537.974" cy="442.003" r="12.984"/>
	<circle style="fill:none;stroke:#FF0000;stroke-width:0.0028;stroke-miterlimit:10;" cx="1491.996" cy="396.488" r="12.983"/>
	<circle style="fill:none;stroke:#FF0000;stroke-width:0.0028;stroke-miterlimit:10;" cx="1446.411" cy="351.657" r="12.984"/>
	<circle style="fill:none;stroke:#FF0000;stroke-width:0.0028;stroke-miterlimit:10;" cx="1446.411" cy="301.418" r="12.984"/>
	<circle style="fill:none;stroke:#FF0000;stroke-width:0.0028;stroke-miterlimit:10;" cx="1491.996" cy="256.264" r="12.983"/>
	<circle style="fill:none;stroke:#FF0000;stroke-width:0.0028;stroke-miterlimit:10;" cx="1537.974" cy="211.326" r="12.984"/>
	<circle style="fill:none;stroke:#FF0000;stroke-width:0.0028;stroke-miterlimit:10;" cx="1583.454" cy="165.954" r="12.984"/>
	<path style="fill:none;stroke:#FF0000;stroke-width:0.0028;stroke-miterlimit:10;" d="M1594.849,534.402
		c0,5.376-4.358,9.738-9.738,9.738c-5.375,0-9.737-4.362-9.737-9.738c0-5.379,4.362-9.738,9.737-9.738
		C1590.49,524.664,1594.849,529.023,1594.849,534.402z"/>
	<circle style="fill:none;stroke:#FF0000;stroke-width:0.0028;stroke-miterlimit:10;" cx="1539.705" cy="487.659" r="9.738"/>
	<circle style="fill:none;stroke:#FF0000;stroke-width:0.0028;stroke-miterlimit:10;" cx="1493.728" cy="442.003" r="9.738"/>
	<path style="fill:none;stroke:#FF0000;stroke-width:0.0028;stroke-miterlimit:10;" d="M1594.849,119.5
		c0,5.377-4.358,9.738-9.738,9.738c-5.375,0-9.737-4.36-9.737-9.738c0-5.378,4.362-9.738,9.737-9.738
		C1590.49,109.761,1594.849,114.122,1594.849,119.5z"/>
	<circle style="fill:none;stroke:#FF0000;stroke-width:0.0028;stroke-miterlimit:10;" cx="1537.974" cy="164.655" r="9.738"/>
	<circle style="fill:none;stroke:#FF0000;stroke-width:0.0028;stroke-miterlimit:10;" cx="1491.996" cy="210.388" r="9.737"/>
	<circle style="fill:none;stroke:#FF0000;stroke-width:0.0028;stroke-miterlimit:10;" cx="1446.411" cy="256.659" r="9.738"/>
	<circle style="fill:none;stroke:#FF0000;stroke-width:0.0028;stroke-miterlimit:10;" cx="1400.67" cy="301.418" r="9.737"/>
	<circle style="fill:none;stroke:#FF0000;stroke-width:0.0028;stroke-miterlimit:10;" cx="1400.67" cy="350.901" r="9.737"/>
	<circle style="fill:none;stroke:#FF0000;stroke-width:0.0028;stroke-miterlimit:10;" cx="1448.142" cy="396.488" r="9.738"/>
	<circle style="fill:none;stroke:#FF0000;stroke-width:0.0028;stroke-miterlimit:10;" cx="1355.227" cy="303.002" r="8.368"/>
	<circle style="fill:none;stroke:#FF0000;stroke-width:0.0028;stroke-miterlimit:10;" cx="1400.67" cy="256.659" r="8.368"/>
	<circle style="fill:none;stroke:#FF0000;stroke-width:0.0028;stroke-miterlimit:10;" cx="1447.78" cy="211.326" r="8.369"/>
	<circle style="fill:none;stroke:#FF0000;stroke-width:0.0028;stroke-miterlimit:10;" cx="1493.366" cy="164.655" r="8.367"/>
	<circle style="fill:none;stroke:#FF0000;stroke-width:0.0028;stroke-miterlimit:10;" cx="1540.755" cy="119.5" r="8.368"/>
	<circle style="fill:none;stroke:#FF0000;stroke-width:0.0028;stroke-miterlimit:10;" cx="1586.482" cy="72.038" r="8.367"/>
</g>
<g id="Holes_x2C__Part_1_1_">
	<circle style="fill:none;stroke:#FF0000;stroke-width:0.0028;stroke-miterlimit:10;" cx="219.74" cy="306.905" r="19.476"/>
	<circle style="fill:none;stroke:#FF0000;stroke-width:0.0028;stroke-miterlimit:10;" cx="219.343" cy="357.145" r="19.078"/>
	<circle style="fill:none;stroke:#FF0000;stroke-width:0.0028;stroke-miterlimit:10;" cx="264.03" cy="356.389" r="20.629"/>
	<circle style="fill:none;stroke:#FF0000;stroke-width:0.0028;stroke-miterlimit:10;" cx="311.709" cy="447.49" r="18.826"/>
	<circle style="fill:none;stroke:#FF0000;stroke-width:0.0028;stroke-miterlimit:10;" cx="357.873" cy="446.841" r="18.755"/>
	<circle style="fill:none;stroke:#FF0000;stroke-width:0.0028;stroke-miterlimit:10;" cx="311.06" cy="215.875" r="18.61"/>
	<circle style="fill:none;stroke:#FF0000;stroke-width:0.0028;stroke-miterlimit:10;" cx="358.594" cy="216.813" r="18.537"/>
	<circle style="fill:none;stroke:#FF0000;stroke-width:0.0028;stroke-miterlimit:10;" cx="449.986" cy="307.338" r="19.043"/>
	<circle style="fill:none;stroke:#FF0000;stroke-width:0.0028;stroke-miterlimit:10;" cx="449.553" cy="357.542" r="19.476"/>
	<circle style="fill:none;stroke:#FF0000;stroke-width:0.0028;stroke-miterlimit:10;" cx="264.03" cy="308.636" r="20.629"/>
	<circle style="fill:none;stroke:#FF0000;stroke-width:0.0028;stroke-miterlimit:10;" cx="405.697" cy="308.636" r="20.629"/>
	<circle style="fill:none;stroke:#FF0000;stroke-width:0.0028;stroke-miterlimit:10;" cx="405.697" cy="356.389" r="20.629"/>
	<circle style="fill:none;stroke:#FF0000;stroke-width:0.0028;stroke-miterlimit:10;" cx="311.06" cy="261.751" r="20.629"/>
	<circle style="fill:none;stroke:#FF0000;stroke-width:0.0028;stroke-miterlimit:10;" cx="357.872" cy="261.751" r="20.629"/>
	<circle style="fill:none;stroke:#FF0000;stroke-width:0.0028;stroke-miterlimit:10;" cx="358.594" cy="403.707" r="20.63"/>
	<circle style="fill:none;stroke:#FF0000;stroke-width:0.0028;stroke-miterlimit:10;" cx="311.06" cy="403.707" r="20.629"/>
	<circle style="fill:none;stroke:#FF0000;stroke-width:0.0028;stroke-miterlimit:10;" cx="358.485" cy="308.526" r="21.964"/>
	<circle style="fill:none;stroke:#FF0000;stroke-width:0.0028;stroke-miterlimit:10;" cx="311.061" cy="309.905" r="21.963"/>
	<circle style="fill:none;stroke:#FF0000;stroke-width:0.0028;stroke-miterlimit:10;" cx="311.061" cy="357.542" r="21.963"/>
	<circle style="fill:none;stroke:#FF0000;stroke-width:0.0028;stroke-miterlimit:10;" cx="358.594" cy="356.389" r="21.962"/>
	<circle style="fill:none;stroke:#FF0000;stroke-width:0.0028;stroke-miterlimit:10;" cx="402.307" cy="216.669" r="17.24"/>
	<circle style="fill:none;stroke:#FF0000;stroke-width:0.0028;stroke-miterlimit:10;" cx="267.419" cy="216.813" r="17.24"/>
	<circle style="fill:none;stroke:#FF0000;stroke-width:0.0028;stroke-miterlimit:10;" cx="449.157" cy="262.146" r="16.844"/>
	<circle style="fill:none;stroke:#FF0000;stroke-width:0.0028;stroke-miterlimit:10;" cx="219.74" cy="261.751" r="17.241"/>
	<circle style="fill:none;stroke:#FF0000;stroke-width:0.0028;stroke-miterlimit:10;" cx="449.192" cy="400.677" r="16.88"/>
	<circle style="fill:none;stroke:#FF0000;stroke-width:0.0028;stroke-miterlimit:10;" cx="402.307" cy="447.49" r="17.24"/>
	<circle style="fill:none;stroke:#FF0000;stroke-width:0.0028;stroke-miterlimit:10;" cx="220.281" cy="401.507" r="16.7"/>
	<circle style="fill:none;stroke:#FF0000;stroke-width:0.0028;stroke-miterlimit:10;" cx="267.418" cy="446.841" r="16.7"/>
	<circle style="fill:none;stroke:#FF0000;stroke-width:0.0028;stroke-miterlimit:10;" cx="265.112" cy="260.525" r="18.755"/>
	<circle style="fill:none;stroke:#FF0000;stroke-width:0.0028;stroke-miterlimit:10;" cx="404.038" cy="260.525" r="18.755"/>
	<circle style="fill:none;stroke:#FF0000;stroke-width:0.0028;stroke-miterlimit:10;" cx="265.761" cy="403.707" r="18.755"/>
	<circle style="fill:none;stroke:#FF0000;stroke-width:0.0028;stroke-miterlimit:10;" cx="311.06" cy="493.146" r="16.7"/>
	<circle style="fill:none;stroke:#FF0000;stroke-width:0.0028;stroke-miterlimit:10;" cx="357.872" cy="493.146" r="16.7"/>
	<circle style="fill:none;stroke:#FF0000;stroke-width:0.0028;stroke-miterlimit:10;" cx="495.724" cy="356.389" r="16.7"/>
	<circle style="fill:none;stroke:#FF0000;stroke-width:0.0028;stroke-miterlimit:10;" cx="495.724" cy="308.636" r="16.7"/>
	<circle style="fill:none;stroke:#FF0000;stroke-width:0.0028;stroke-miterlimit:10;" cx="174.304" cy="356.389" r="16.7"/>
	<circle style="fill:none;stroke:#FF0000;stroke-width:0.0028;stroke-miterlimit:10;" cx="174.304" cy="308.636" r="16.7"/>
	<circle style="fill:none;stroke:#FF0000;stroke-width:0.0028;stroke-miterlimit:10;" cx="311.709" cy="171.441" r="16.7"/>
	<circle style="fill:none;stroke:#FF0000;stroke-width:0.0028;stroke-miterlimit:10;" cx="357.872" cy="171.441" r="16.7"/>
	<circle style="fill:none;stroke:#FF0000;stroke-width:0.0028;stroke-miterlimit:10;" cx="540.448" cy="356.673" r="12.984"/>
	<circle style="fill:none;stroke:#FF0000;stroke-width:0.0028;stroke-miterlimit:10;" cx="495.724" cy="400.677" r="12.984"/>
	<circle style="fill:none;stroke:#FF0000;stroke-width:0.0028;stroke-miterlimit:10;" cx="449.158" cy="446.841" r="12.984"/>
	<circle style="fill:none;stroke:#FF0000;stroke-width:0.0028;stroke-miterlimit:10;" cx="402.308" cy="493.146" r="12.984"/>
	<circle style="fill:none;stroke:#FF0000;stroke-width:0.0028;stroke-miterlimit:10;" cx="356.141" cy="539.89" r="12.984"/>
	<circle style="fill:none;stroke:#FF0000;stroke-width:0.0028;stroke-miterlimit:10;" cx="311.709" cy="539.89" r="12.984"/>
	<circle style="fill:none;stroke:#FF0000;stroke-width:0.0028;stroke-miterlimit:10;" cx="267.418" cy="493.146" r="12.984"/>
	<circle style="fill:none;stroke:#FF0000;stroke-width:0.0028;stroke-miterlimit:10;" cx="220.281" cy="447.49" r="12.984"/>
	<circle style="fill:none;stroke:#FF0000;stroke-width:0.0028;stroke-miterlimit:10;" cx="174.304" cy="401.976" r="12.984"/>
	<circle style="fill:none;stroke:#FF0000;stroke-width:0.0028;stroke-miterlimit:10;" cx="128.719" cy="357.145" r="12.984"/>
	<circle style="fill:none;stroke:#FF0000;stroke-width:0.0028;stroke-miterlimit:10;" cx="128.719" cy="306.905" r="12.984"/>
	<circle style="fill:none;stroke:#FF0000;stroke-width:0.0028;stroke-miterlimit:10;" cx="174.304" cy="261.751" r="12.984"/>
	<circle style="fill:none;stroke:#FF0000;stroke-width:0.0028;stroke-miterlimit:10;" cx="220.281" cy="216.813" r="12.984"/>
	<circle style="fill:none;stroke:#FF0000;stroke-width:0.0028;stroke-miterlimit:10;" cx="265.762" cy="171.441" r="12.984"/>
	<circle style="fill:none;stroke:#FF0000;stroke-width:0.0028;stroke-miterlimit:10;" cx="313.44" cy="124.987" r="12.984"/>
	<circle style="fill:none;stroke:#FF0000;stroke-width:0.0028;stroke-miterlimit:10;" cx="357.872" cy="124.987" r="12.984"/>
	<circle style="fill:none;stroke:#FF0000;stroke-width:0.0028;stroke-miterlimit:10;" cx="402.308" cy="171.441" r="12.984"/>
	<circle style="fill:none;stroke:#FF0000;stroke-width:0.0028;stroke-miterlimit:10;" cx="447.831" cy="216.669" r="12.984"/>
	<circle style="fill:none;stroke:#FF0000;stroke-width:0.0028;stroke-miterlimit:10;" cx="495.724" cy="262.146" r="12.984"/>
	<circle style="fill:none;stroke:#FF0000;stroke-width:0.0028;stroke-miterlimit:10;" cx="540.448" cy="306.795" r="12.984"/>
	<circle style="fill:none;stroke:#FF0000;stroke-width:0.0028;stroke-miterlimit:10;" cx="402.308" cy="539.89" r="9.738"/>
	<circle style="fill:none;stroke:#FF0000;stroke-width:0.0028;stroke-miterlimit:10;" cx="449.158" cy="493.146" r="9.738"/>
	<circle style="fill:none;stroke:#FF0000;stroke-width:0.0028;stroke-miterlimit:10;" cx="267.418" cy="539.89" r="9.738"/>
	<circle style="fill:none;stroke:#FF0000;stroke-width:0.0028;stroke-miterlimit:10;" cx="222.012" cy="493.146" r="9.738"/>
	<circle style="fill:none;stroke:#FF0000;stroke-width:0.0028;stroke-miterlimit:10;" cx="176.035" cy="447.49" r="9.738"/>
	<circle style="fill:none;stroke:#FF0000;stroke-width:0.0028;stroke-miterlimit:10;" cx="494.131" cy="447.49" r="9.738"/>
	<circle style="fill:none;stroke:#FF0000;stroke-width:0.0028;stroke-miterlimit:10;" cx="538.717" cy="401.976" r="9.738"/>
	<circle style="fill:none;stroke:#FF0000;stroke-width:0.0028;stroke-miterlimit:10;" cx="585.45" cy="354.658" r="9.738"/>
	<circle style="fill:none;stroke:#FF0000;stroke-width:0.0028;stroke-miterlimit:10;" cx="585.45" cy="306.795" r="9.738"/>
	<circle style="fill:none;stroke:#FF0000;stroke-width:0.0028;stroke-miterlimit:10;" cx="538.717" cy="261.751" r="9.738"/>
	<circle style="fill:none;stroke:#FF0000;stroke-width:0.0028;stroke-miterlimit:10;" cx="494.209" cy="216.813" r="9.738"/>
	<circle style="fill:none;stroke:#FF0000;stroke-width:0.0028;stroke-miterlimit:10;" cx="447.831" cy="171.441" r="9.738"/>
	<circle style="fill:none;stroke:#FF0000;stroke-width:0.0028;stroke-miterlimit:10;" cx="402.308" cy="124.987" r="9.738"/>
	<circle style="fill:none;stroke:#FF0000;stroke-width:0.0028;stroke-miterlimit:10;" cx="356.357" cy="79.256" r="9.738"/>
	<circle style="fill:none;stroke:#FF0000;stroke-width:0.0028;stroke-miterlimit:10;" cx="313.44" cy="79.256" r="9.738"/>
	<circle style="fill:none;stroke:#FF0000;stroke-width:0.0028;stroke-miterlimit:10;" cx="267.418" cy="124.987" r="9.738"/>
	<circle style="fill:none;stroke:#FF0000;stroke-width:0.0028;stroke-miterlimit:10;" cx="220.281" cy="170.143" r="9.738"/>
	<circle style="fill:none;stroke:#FF0000;stroke-width:0.0028;stroke-miterlimit:10;" cx="174.304" cy="215.875" r="9.738"/>
	<circle style="fill:none;stroke:#FF0000;stroke-width:0.0028;stroke-miterlimit:10;" cx="128.719" cy="262.146" r="9.738"/>
	<circle style="fill:none;stroke:#FF0000;stroke-width:0.0028;stroke-miterlimit:10;" cx="82.978" cy="306.905" r="9.738"/>
	<circle style="fill:none;stroke:#FF0000;stroke-width:0.0028;stroke-miterlimit:10;" cx="82.978" cy="356.389" r="9.738"/>
	<circle style="fill:none;stroke:#FF0000;stroke-width:0.0028;stroke-miterlimit:10;" cx="130.45" cy="401.976" r="9.738"/>
	<circle style="fill:none;stroke:#FF0000;stroke-width:0.0028;stroke-miterlimit:10;" cx="82.978" cy="262.146" r="8.368"/>
	<circle style="fill:none;stroke:#FF0000;stroke-width:0.0028;stroke-miterlimit:10;" cx="130.088" cy="216.813" r="8.369"/>
	<circle style="fill:none;stroke:#FF0000;stroke-width:0.0028;stroke-miterlimit:10;" cx="175.674" cy="170.143" r="8.367"/>
	<circle style="fill:none;stroke:#FF0000;stroke-width:0.0028;stroke-miterlimit:10;" cx="223.063" cy="124.987" r="8.368"/>
	<circle style="fill:none;stroke:#FF0000;stroke-width:0.0028;stroke-miterlimit:10;" cx="268.79" cy="77.525" r="8.367"/>
	<circle style="fill:none;stroke:#FF0000;stroke-width:0.0028;stroke-miterlimit:10;" cx="400.576" cy="77.525" r="8.367"/>
	<circle style="fill:none;stroke:#FF0000;stroke-width:0.0028;stroke-miterlimit:10;" cx="447.831" cy="124.987" r="8.367"/>
	<circle style="fill:none;stroke:#FF0000;stroke-width:0.0028;stroke-miterlimit:10;" cx="492.479" cy="170.071" r="8.368"/>
	<circle style="fill:none;stroke:#FF0000;stroke-width:0.0028;stroke-miterlimit:10;" cx="538.717" cy="216.669" r="8.367"/>
	<circle style="fill:none;stroke:#FF0000;stroke-width:0.0028;stroke-miterlimit:10;" cx="585.45" cy="263.122" r="8.368"/>
	<circle style="fill:none;stroke:#FF0000;stroke-width:0.0028;stroke-miterlimit:10;" cx="631.614" cy="308.636" r="8.369"/>
	<circle style="fill:none;stroke:#FF0000;stroke-width:0.0028;stroke-miterlimit:10;" cx="628.553" cy="534.781" r="18.61"/>
	<circle style="fill:none;stroke:#FF0000;stroke-width:0.0028;stroke-miterlimit:10;" cx="676.087" cy="535.719" r="18.537"/>
	<circle style="fill:none;stroke:#FF0000;stroke-width:0.0028;stroke-miterlimit:10;" cx="719.8" cy="535.576" r="17.24"/>
	<circle style="fill:none;stroke:#FF0000;stroke-width:0.0028;stroke-miterlimit:10;" cx="584.913" cy="535.719" r="17.24"/>
	<circle style="fill:none;stroke:#FF0000;stroke-width:0.0028;stroke-miterlimit:10;" cx="629.202" cy="490.347" r="16.7"/>
	<circle style="fill:none;stroke:#FF0000;stroke-width:0.0028;stroke-miterlimit:10;" cx="675.365" cy="490.347" r="16.7"/>
	<circle style="fill:none;stroke:#FF0000;stroke-width:0.0028;stroke-miterlimit:10;" cx="537.774" cy="535.719" r="12.984"/>
	<circle style="fill:none;stroke:#FF0000;stroke-width:0.0028;stroke-miterlimit:10;" cx="583.255" cy="490.347" r="12.984"/>
	<circle style="fill:none;stroke:#FF0000;stroke-width:0.0028;stroke-miterlimit:10;" cx="630.933" cy="443.893" r="12.984"/>
	<circle style="fill:none;stroke:#FF0000;stroke-width:0.0028;stroke-miterlimit:10;" cx="675.365" cy="443.893" r="12.984"/>
	<circle style="fill:none;stroke:#FF0000;stroke-width:0.0028;stroke-miterlimit:10;" cx="719.801" cy="490.347" r="12.984"/>
	<circle style="fill:none;stroke:#FF0000;stroke-width:0.0028;stroke-miterlimit:10;" cx="765.324" cy="535.576" r="12.984"/>
	<circle style="fill:none;stroke:#FF0000;stroke-width:0.0028;stroke-miterlimit:10;" cx="811.702" cy="535.719" r="9.738"/>
	<circle style="fill:none;stroke:#FF0000;stroke-width:0.0028;stroke-miterlimit:10;" cx="765.324" cy="490.347" r="9.738"/>
	<circle style="fill:none;stroke:#FF0000;stroke-width:0.0028;stroke-miterlimit:10;" cx="719.801" cy="443.893" r="9.738"/>
	<circle style="fill:none;stroke:#FF0000;stroke-width:0.0028;stroke-miterlimit:10;" cx="673.851" cy="398.162" r="9.738"/>
	<circle style="fill:none;stroke:#FF0000;stroke-width:0.0028;stroke-miterlimit:10;" cx="630.933" cy="398.162" r="9.738"/>
	<circle style="fill:none;stroke:#FF0000;stroke-width:0.0028;stroke-miterlimit:10;" cx="582.912" cy="443.893" r="9.738"/>
	<circle style="fill:none;stroke:#FF0000;stroke-width:0.0028;stroke-miterlimit:10;" cx="537.774" cy="489.049" r="9.738"/>
	<circle style="fill:none;stroke:#FF0000;stroke-width:0.0028;stroke-miterlimit:10;" cx="491.797" cy="534.781" r="9.738"/>
	<circle style="fill:none;stroke:#FF0000;stroke-width:0.0028;stroke-miterlimit:10;" cx="447.581" cy="535.719" r="8.369"/>
	<circle style="fill:none;stroke:#FF0000;stroke-width:0.0028;stroke-miterlimit:10;" cx="493.167" cy="489.049" r="8.367"/>
	<circle style="fill:none;stroke:#FF0000;stroke-width:0.0028;stroke-miterlimit:10;" cx="536.556" cy="445.893" r="8.368"/>
	<circle style="fill:none;stroke:#FF0000;stroke-width:0.0028;stroke-miterlimit:10;" cx="586.283" cy="396.431" r="8.367"/>
	<circle style="fill:none;stroke:#FF0000;stroke-width:0.0028;stroke-miterlimit:10;" cx="632.592" cy="355.019" r="8.367"/>
	<circle style="fill:none;stroke:#FF0000;stroke-width:0.0028;stroke-miterlimit:10;" cx="672.48" cy="355.019" r="8.368"/>
	<circle style="fill:none;stroke:#FF0000;stroke-width:0.0028;stroke-miterlimit:10;" cx="718.069" cy="396.431" r="8.367"/>
	<circle style="fill:none;stroke:#FF0000;stroke-width:0.0028;stroke-miterlimit:10;" cx="765.324" cy="443.893" r="8.367"/>
	<circle style="fill:none;stroke:#FF0000;stroke-width:0.0028;stroke-miterlimit:10;" cx="809.972" cy="488.977" r="8.368"/>
	<circle style="fill:none;stroke:#FF0000;stroke-width:0.0028;stroke-miterlimit:10;" cx="856.21" cy="535.576" r="8.367"/>
	<circle style="fill:none;stroke:#FF0000;stroke-width:0.0028;stroke-miterlimit:10;" cx="631.872" cy="127.993" r="18.826"/>
	<circle style="fill:none;stroke:#FF0000;stroke-width:0.0028;stroke-miterlimit:10;" cx="678.036" cy="127.343" r="18.754"/>
	<circle style="fill:none;stroke:#FF0000;stroke-width:0.0028;stroke-miterlimit:10;" cx="678.757" cy="84.209" r="20.63"/>
	<circle style="fill:none;stroke:#FF0000;stroke-width:0.0028;stroke-miterlimit:10;" cx="631.223" cy="84.209" r="20.628"/>
	<circle style="fill:none;stroke:#FF0000;stroke-width:0.0028;stroke-miterlimit:10;" cx="769.355" cy="81.18" r="16.88"/>
	<circle style="fill:none;stroke:#FF0000;stroke-width:0.0028;stroke-miterlimit:10;" cx="722.47" cy="127.993" r="17.24"/>
	<circle style="fill:none;stroke:#FF0000;stroke-width:0.0028;stroke-miterlimit:10;" cx="540.444" cy="82.01" r="16.7"/>
	<circle style="fill:none;stroke:#FF0000;stroke-width:0.0028;stroke-miterlimit:10;" cx="587.581" cy="127.343" r="16.7"/>
	<circle style="fill:none;stroke:#FF0000;stroke-width:0.0028;stroke-miterlimit:10;" cx="585.924" cy="84.209" r="18.755"/>
	<circle style="fill:none;stroke:#FF0000;stroke-width:0.0028;stroke-miterlimit:10;" cx="724.201" cy="82.478" r="18.755"/>
	<circle style="fill:none;stroke:#FF0000;stroke-width:0.0028;stroke-miterlimit:10;" cx="631.222" cy="173.649" r="16.7"/>
	<circle style="fill:none;stroke:#FF0000;stroke-width:0.0028;stroke-miterlimit:10;" cx="678.035" cy="173.649" r="16.7"/>
	<circle style="fill:none;stroke:#FF0000;stroke-width:0.0028;stroke-miterlimit:10;" cx="815.886" cy="81.18" r="12.983"/>
	<circle style="fill:none;stroke:#FF0000;stroke-width:0.0028;stroke-miterlimit:10;" cx="769.32" cy="127.343" r="12.984"/>
	<circle style="fill:none;stroke:#FF0000;stroke-width:0.0028;stroke-miterlimit:10;" cx="722.47" cy="173.649" r="12.983"/>
	<circle style="fill:none;stroke:#FF0000;stroke-width:0.0028;stroke-miterlimit:10;" cx="676.304" cy="220.392" r="12.984"/>
	<circle style="fill:none;stroke:#FF0000;stroke-width:0.0028;stroke-miterlimit:10;" cx="631.871" cy="220.392" r="12.984"/>
	<circle style="fill:none;stroke:#FF0000;stroke-width:0.0028;stroke-miterlimit:10;" cx="587.581" cy="173.649" r="12.984"/>
	<circle style="fill:none;stroke:#FF0000;stroke-width:0.0028;stroke-miterlimit:10;" cx="540.444" cy="127.993" r="12.984"/>
	<circle style="fill:none;stroke:#FF0000;stroke-width:0.0028;stroke-miterlimit:10;" cx="494.466" cy="82.478" r="12.984"/>
	<circle style="fill:none;stroke:#FF0000;stroke-width:0.0028;stroke-miterlimit:10;" cx="675.583" cy="262.015" r="9.737"/>
	<path style="fill:none;stroke:#FF0000;stroke-width:0.0028;stroke-miterlimit:10;" d="M732.208,220.392
		c0,5.376-4.362,9.738-9.737,9.738c-5.38,0-9.738-4.362-9.738-9.738c0-5.379,4.358-9.738,9.738-9.738
		C727.846,210.654,732.208,215.013,732.208,220.392z"/>
	<circle style="fill:none;stroke:#FF0000;stroke-width:0.0028;stroke-miterlimit:10;" cx="769.32" cy="173.649" r="9.738"/>
	<circle style="fill:none;stroke:#FF0000;stroke-width:0.0028;stroke-miterlimit:10;" cx="631.872" cy="262.015" r="9.738"/>
	<circle style="fill:none;stroke:#FF0000;stroke-width:0.0028;stroke-miterlimit:10;" cx="587.581" cy="220.392" r="9.738"/>
	<circle style="fill:none;stroke:#FF0000;stroke-width:0.0028;stroke-miterlimit:10;" cx="542.175" cy="173.649" r="9.738"/>
	<circle style="fill:none;stroke:#FF0000;stroke-width:0.0028;stroke-miterlimit:10;" cx="496.198" cy="127.993" r="9.738"/>
	<circle style="fill:none;stroke:#FF0000;stroke-width:0.0028;stroke-miterlimit:10;" cx="814.293" cy="127.993" r="9.738"/>
	<circle style="fill:none;stroke:#FF0000;stroke-width:0.0028;stroke-miterlimit:10;" cx="858.88" cy="82.478" r="9.738"/>
	<circle style="fill:none;stroke:#FF0000;stroke-width:0.0028;stroke-miterlimit:10;" cx="450.612" cy="82.478" r="9.738"/>
	<circle style="fill:none;stroke:#FF0000;stroke-width:0.0028;stroke-miterlimit:10;" cx="855.64" cy="304.959" r="19.476"/>
	<circle style="fill:none;stroke:#FF0000;stroke-width:0.0028;stroke-miterlimit:10;" cx="855.243" cy="355.198" r="19.079"/>
	<circle style="fill:none;stroke:#FF0000;stroke-width:0.0028;stroke-miterlimit:10;" cx="899.929" cy="354.442" r="20.629"/>
	<circle style="fill:none;stroke:#FF0000;stroke-width:0.0028;stroke-miterlimit:10;" cx="947.608" cy="445.544" r="18.826"/>
	<circle style="fill:none;stroke:#FF0000;stroke-width:0.0028;stroke-miterlimit:10;" cx="993.773" cy="444.895" r="18.754"/>
	<circle style="fill:none;stroke:#FF0000;stroke-width:0.0028;stroke-miterlimit:10;" cx="946.959" cy="213.929" r="18.61"/>
	<circle style="fill:none;stroke:#FF0000;stroke-width:0.0028;stroke-miterlimit:10;" cx="994.493" cy="214.867" r="18.537"/>
	<circle style="fill:none;stroke:#FF0000;stroke-width:0.0028;stroke-miterlimit:10;" cx="899.929" cy="306.69" r="20.629"/>
	<circle style="fill:none;stroke:#FF0000;stroke-width:0.0028;stroke-miterlimit:10;" cx="1041.596" cy="306.69" r="20.629"/>
	<circle style="fill:none;stroke:#FF0000;stroke-width:0.0028;stroke-miterlimit:10;" cx="1041.596" cy="354.442" r="20.629"/>
	<circle style="fill:none;stroke:#FF0000;stroke-width:0.0028;stroke-miterlimit:10;" cx="946.959" cy="259.805" r="20.628"/>
	<circle style="fill:none;stroke:#FF0000;stroke-width:0.0028;stroke-miterlimit:10;" cx="993.772" cy="259.805" r="20.628"/>
	<circle style="fill:none;stroke:#FF0000;stroke-width:0.0028;stroke-miterlimit:10;" cx="994.494" cy="401.761" r="20.63"/>
	<circle style="fill:none;stroke:#FF0000;stroke-width:0.0028;stroke-miterlimit:10;" cx="946.959" cy="401.761" r="20.628"/>
	<circle style="fill:none;stroke:#FF0000;stroke-width:0.0028;stroke-miterlimit:10;" cx="994.385" cy="306.58" r="21.964"/>
	<circle style="fill:none;stroke:#FF0000;stroke-width:0.0028;stroke-miterlimit:10;" cx="946.96" cy="307.959" r="21.963"/>
	<circle style="fill:none;stroke:#FF0000;stroke-width:0.0028;stroke-miterlimit:10;" cx="946.96" cy="355.596" r="21.963"/>
	<path style="fill:none;stroke:#FF0000;stroke-width:0.0028;stroke-miterlimit:10;" d="M972.531,354.442
		c0,12.13,9.832,21.963,21.96,21.963c12.133,0,21.965-9.833,21.965-21.963c0-12.132-9.832-21.964-21.965-21.964
		C982.363,332.479,972.531,342.311,972.531,354.442z"/>
	<circle style="fill:none;stroke:#FF0000;stroke-width:0.0028;stroke-miterlimit:10;" cx="1038.207" cy="214.723" r="17.24"/>
	<circle style="fill:none;stroke:#FF0000;stroke-width:0.0028;stroke-miterlimit:10;" cx="903.319" cy="214.867" r="17.24"/>
	<circle style="fill:none;stroke:#FF0000;stroke-width:0.0028;stroke-miterlimit:10;" cx="855.64" cy="259.805" r="17.24"/>
	<circle style="fill:none;stroke:#FF0000;stroke-width:0.0028;stroke-miterlimit:10;" cx="1038.207" cy="445.544" r="17.24"/>
	<circle style="fill:none;stroke:#FF0000;stroke-width:0.0028;stroke-miterlimit:10;" cx="856.181" cy="399.561" r="16.699"/>
	<circle style="fill:none;stroke:#FF0000;stroke-width:0.0028;stroke-miterlimit:10;" cx="903.318" cy="444.895" r="16.7"/>
	<circle style="fill:none;stroke:#FF0000;stroke-width:0.0028;stroke-miterlimit:10;" cx="901.011" cy="258.579" r="18.754"/>
	<circle style="fill:none;stroke:#FF0000;stroke-width:0.0028;stroke-miterlimit:10;" cx="1039.938" cy="258.579" r="18.755"/>
	<circle style="fill:none;stroke:#FF0000;stroke-width:0.0028;stroke-miterlimit:10;" cx="901.66" cy="401.761" r="18.755"/>
	<circle style="fill:none;stroke:#FF0000;stroke-width:0.0028;stroke-miterlimit:10;" cx="1039.938" cy="400.029" r="18.755"/>
	<circle style="fill:none;stroke:#FF0000;stroke-width:0.0028;stroke-miterlimit:10;" cx="946.959" cy="491.2" r="16.7"/>
	<circle style="fill:none;stroke:#FF0000;stroke-width:0.0028;stroke-miterlimit:10;" cx="993.771" cy="491.2" r="16.7"/>
	<circle style="fill:none;stroke:#FF0000;stroke-width:0.0028;stroke-miterlimit:10;" cx="810.203" cy="354.442" r="16.7"/>
	<circle style="fill:none;stroke:#FF0000;stroke-width:0.0028;stroke-miterlimit:10;" cx="810.203" cy="306.69" r="16.7"/>
	<circle style="fill:none;stroke:#FF0000;stroke-width:0.0028;stroke-miterlimit:10;" cx="947.608" cy="169.495" r="16.699"/>
	<circle style="fill:none;stroke:#FF0000;stroke-width:0.0028;stroke-miterlimit:10;" cx="993.771" cy="169.495" r="16.7"/>
	<circle style="fill:none;stroke:#FF0000;stroke-width:0.0028;stroke-miterlimit:10;" cx="1038.207" cy="491.2" r="12.983"/>
	<circle style="fill:none;stroke:#FF0000;stroke-width:0.0028;stroke-miterlimit:10;" cx="992.041" cy="537.943" r="12.984"/>
	<circle style="fill:none;stroke:#FF0000;stroke-width:0.0028;stroke-miterlimit:10;" cx="947.608" cy="537.943" r="12.984"/>
	<circle style="fill:none;stroke:#FF0000;stroke-width:0.0028;stroke-miterlimit:10;" cx="903.318" cy="491.2" r="12.984"/>
	<circle style="fill:none;stroke:#FF0000;stroke-width:0.0028;stroke-miterlimit:10;" cx="856.181" cy="445.544" r="12.984"/>
	<circle style="fill:none;stroke:#FF0000;stroke-width:0.0028;stroke-miterlimit:10;" cx="810.203" cy="400.029" r="12.983"/>
	<circle style="fill:none;stroke:#FF0000;stroke-width:0.0028;stroke-miterlimit:10;" cx="764.618" cy="355.198" r="12.984"/>
	<circle style="fill:none;stroke:#FF0000;stroke-width:0.0028;stroke-miterlimit:10;" cx="764.618" cy="304.959" r="12.984"/>
	<circle style="fill:none;stroke:#FF0000;stroke-width:0.0028;stroke-miterlimit:10;" cx="810.203" cy="259.805" r="12.983"/>
	<circle style="fill:none;stroke:#FF0000;stroke-width:0.0028;stroke-miterlimit:10;" cx="856.181" cy="214.867" r="12.984"/>
	<circle style="fill:none;stroke:#FF0000;stroke-width:0.0028;stroke-miterlimit:10;" cx="901.661" cy="169.495" r="12.984"/>
	<circle style="fill:none;stroke:#FF0000;stroke-width:0.0028;stroke-miterlimit:10;" cx="949.339" cy="123.041" r="12.984"/>
	<circle style="fill:none;stroke:#FF0000;stroke-width:0.0028;stroke-miterlimit:10;" cx="993.771" cy="123.041" r="12.983"/>
	<circle style="fill:none;stroke:#FF0000;stroke-width:0.0028;stroke-miterlimit:10;" cx="1038.207" cy="169.495" r="12.983"/>
	<path style="fill:none;stroke:#FF0000;stroke-width:0.0028;stroke-miterlimit:10;" d="M1047.945,537.943
		c0,5.376-4.362,9.738-9.737,9.738c-5.38,0-9.738-4.362-9.738-9.738c0-5.379,4.358-9.738,9.738-9.738
		C1043.583,528.206,1047.945,532.564,1047.945,537.943z"/>
	<path style="fill:none;stroke:#FF0000;stroke-width:0.0028;stroke-miterlimit:10;" d="M913.056,537.943
		c0,5.376-4.358,9.738-9.738,9.738c-5.375,0-9.737-4.362-9.737-9.738c0-5.379,4.362-9.738,9.737-9.738
		C908.697,528.206,913.056,532.564,913.056,537.943z"/>
	<circle style="fill:none;stroke:#FF0000;stroke-width:0.0028;stroke-miterlimit:10;" cx="857.912" cy="491.2" r="9.738"/>
	<circle style="fill:none;stroke:#FF0000;stroke-width:0.0028;stroke-miterlimit:10;" cx="811.935" cy="445.544" r="9.738"/>
	<path style="fill:none;stroke:#FF0000;stroke-width:0.0028;stroke-miterlimit:10;" d="M1047.945,123.041
		c0,5.377-4.362,9.738-9.737,9.738c-5.38,0-9.738-4.36-9.738-9.738c0-5.378,4.358-9.738,9.738-9.738
		C1043.583,113.302,1047.945,117.663,1047.945,123.041z"/>
	<circle style="fill:none;stroke:#FF0000;stroke-width:0.0028;stroke-miterlimit:10;" cx="992.257" cy="77.31" r="9.738"/>
	<circle style="fill:none;stroke:#FF0000;stroke-width:0.0028;stroke-miterlimit:10;" cx="949.339" cy="77.31" r="9.738"/>
	<path style="fill:none;stroke:#FF0000;stroke-width:0.0028;stroke-miterlimit:10;" d="M913.056,123.041
		c0,5.377-4.358,9.738-9.738,9.738c-5.375,0-9.737-4.36-9.737-9.738c0-5.378,4.362-9.738,9.737-9.738
		C908.697,113.302,913.056,117.663,913.056,123.041z"/>
	<circle style="fill:none;stroke:#FF0000;stroke-width:0.0028;stroke-miterlimit:10;" cx="856.181" cy="168.196" r="9.738"/>
	<circle style="fill:none;stroke:#FF0000;stroke-width:0.0028;stroke-miterlimit:10;" cx="810.203" cy="213.929" r="9.737"/>
	<circle style="fill:none;stroke:#FF0000;stroke-width:0.0028;stroke-miterlimit:10;" cx="764.618" cy="260.2" r="9.738"/>
	<circle style="fill:none;stroke:#FF0000;stroke-width:0.0028;stroke-miterlimit:10;" cx="718.877" cy="304.959" r="9.737"/>
	<circle style="fill:none;stroke:#FF0000;stroke-width:0.0028;stroke-miterlimit:10;" cx="718.877" cy="354.442" r="9.737"/>
	<circle style="fill:none;stroke:#FF0000;stroke-width:0.0028;stroke-miterlimit:10;" cx="766.349" cy="400.029" r="9.738"/>
	<circle style="fill:none;stroke:#FF0000;stroke-width:0.0028;stroke-miterlimit:10;" cx="673.434" cy="306.543" r="8.368"/>
	<circle style="fill:none;stroke:#FF0000;stroke-width:0.0028;stroke-miterlimit:10;" cx="718.877" cy="260.2" r="8.368"/>
	<circle style="fill:none;stroke:#FF0000;stroke-width:0.0028;stroke-miterlimit:10;" cx="765.987" cy="214.867" r="8.369"/>
	<circle style="fill:none;stroke:#FF0000;stroke-width:0.0028;stroke-miterlimit:10;" cx="811.573" cy="168.196" r="8.367"/>
	<circle style="fill:none;stroke:#FF0000;stroke-width:0.0028;stroke-miterlimit:10;" cx="858.962" cy="123.041" r="8.368"/>
	<circle style="fill:none;stroke:#FF0000;stroke-width:0.0028;stroke-miterlimit:10;" cx="904.689" cy="75.579" r="8.367"/>
	<circle style="fill:none;stroke:#FF0000;stroke-width:0.0028;stroke-miterlimit:10;" cx="1036.476" cy="75.579" r="8.367"/>
	<circle style="fill:none;stroke:#FF0000;stroke-width:0.0028;stroke-miterlimit:10;" cx="84.589" cy="536.41" r="17.24"/>
	<circle style="fill:none;stroke:#FF0000;stroke-width:0.0028;stroke-miterlimit:10;" cx="84.59" cy="491.181" r="12.984"/>
	<circle style="fill:none;stroke:#FF0000;stroke-width:0.0028;stroke-miterlimit:10;" cx="130.113" cy="536.41" r="12.984"/>
	<circle style="fill:none;stroke:#FF0000;stroke-width:0.0028;stroke-miterlimit:10;" cx="176.491" cy="536.553" r="9.738"/>
	<circle style="fill:none;stroke:#FF0000;stroke-width:0.0028;stroke-miterlimit:10;" cx="130.113" cy="491.181" r="9.738"/>
	<circle style="fill:none;stroke:#FF0000;stroke-width:0.0028;stroke-miterlimit:10;" cx="84.59" cy="444.727" r="9.738"/>
	<circle style="fill:none;stroke:#FF0000;stroke-width:0.0028;stroke-miterlimit:10;" cx="82.858" cy="397.265" r="8.367"/>
	<circle style="fill:none;stroke:#FF0000;stroke-width:0.0028;stroke-miterlimit:10;" cx="130.113" cy="444.727" r="8.367"/>
	<circle style="fill:none;stroke:#FF0000;stroke-width:0.0028;stroke-miterlimit:10;" cx="174.761" cy="489.811" r="8.368"/>
	<circle style="fill:none;stroke:#FF0000;stroke-width:0.0028;stroke-miterlimit:10;" cx="221" cy="536.41" r="8.367"/>
	<circle style="fill:none;stroke:#FF0000;stroke-width:0.0028;stroke-miterlimit:10;" cx="400.576" cy="403.707" r="14.173"/>
	<circle style="fill:none;stroke:#FF0000;stroke-width:0.0028;stroke-miterlimit:10;" cx="87.053" cy="81.787" r="19.476"/>
	<circle style="fill:none;stroke:#FF0000;stroke-width:0.0028;stroke-miterlimit:10;" cx="86.692" cy="124.922" r="16.88"/>
	<circle style="fill:none;stroke:#FF0000;stroke-width:0.0028;stroke-miterlimit:10;" cx="133.223" cy="80.634" r="16.7"/>
	<circle style="fill:none;stroke:#FF0000;stroke-width:0.0028;stroke-miterlimit:10;" cx="177.948" cy="80.918" r="12.983"/>
	<circle style="fill:none;stroke:#FF0000;stroke-width:0.0028;stroke-miterlimit:10;" cx="133.223" cy="124.922" r="12.983"/>
	<circle style="fill:none;stroke:#FF0000;stroke-width:0.0028;stroke-miterlimit:10;" cx="86.657" cy="171.086" r="12.984"/>
	<circle style="fill:none;stroke:#FF0000;stroke-width:0.0028;stroke-miterlimit:10;" cx="86.657" cy="217.392" r="9.738"/>
	<circle style="fill:none;stroke:#FF0000;stroke-width:0.0028;stroke-miterlimit:10;" cx="131.63" cy="171.735" r="9.738"/>
	<circle style="fill:none;stroke:#FF0000;stroke-width:0.0028;stroke-miterlimit:10;" cx="176.217" cy="126.221" r="9.738"/>
	<circle style="fill:none;stroke:#FF0000;stroke-width:0.0028;stroke-miterlimit:10;" cx="222.95" cy="78.903" r="9.737"/>
	<circle style="fill:none;stroke:#FF0000;stroke-width:0.0028;stroke-miterlimit:10;" cx="1131.779" cy="303.797" r="19.043"/>
	<circle style="fill:none;stroke:#FF0000;stroke-width:0.0028;stroke-miterlimit:10;" cx="1131.347" cy="354.001" r="19.476"/>
	<circle style="fill:none;stroke:#FF0000;stroke-width:0.0028;stroke-miterlimit:10;" cx="1087.49" cy="305.095" r="20.629"/>
	<circle style="fill:none;stroke:#FF0000;stroke-width:0.0028;stroke-miterlimit:10;" cx="1087.49" cy="352.848" r="20.629"/>
	<circle style="fill:none;stroke:#FF0000;stroke-width:0.0028;stroke-miterlimit:10;" cx="1084.1" cy="213.128" r="17.24"/>
	<circle style="fill:none;stroke:#FF0000;stroke-width:0.0028;stroke-miterlimit:10;" cx="1130.95" cy="258.605" r="16.844"/>
	<circle style="fill:none;stroke:#FF0000;stroke-width:0.0028;stroke-miterlimit:10;" cx="1130.985" cy="397.137" r="16.88"/>
	<circle style="fill:none;stroke:#FF0000;stroke-width:0.0028;stroke-miterlimit:10;" cx="1084.1" cy="443.949" r="17.24"/>
	<circle style="fill:none;stroke:#FF0000;stroke-width:0.0028;stroke-miterlimit:10;" cx="1085.831" cy="256.984" r="18.755"/>
	<circle style="fill:none;stroke:#FF0000;stroke-width:0.0028;stroke-miterlimit:10;" cx="1177.517" cy="352.848" r="16.7"/>
	<circle style="fill:none;stroke:#FF0000;stroke-width:0.0028;stroke-miterlimit:10;" cx="1177.517" cy="305.095" r="16.7"/>
	<circle style="fill:none;stroke:#FF0000;stroke-width:0.0028;stroke-miterlimit:10;" cx="1222.241" cy="353.132" r="12.983"/>
	<circle style="fill:none;stroke:#FF0000;stroke-width:0.0028;stroke-miterlimit:10;" cx="1177.517" cy="397.137" r="12.983"/>
	<circle style="fill:none;stroke:#FF0000;stroke-width:0.0028;stroke-miterlimit:10;" cx="1130.951" cy="443.3" r="12.984"/>
	<circle style="fill:none;stroke:#FF0000;stroke-width:0.0028;stroke-miterlimit:10;" cx="1084.101" cy="489.605" r="12.983"/>
	<circle style="fill:none;stroke:#FF0000;stroke-width:0.0028;stroke-miterlimit:10;" cx="1084.101" cy="167.9" r="12.983"/>
	<circle style="fill:none;stroke:#FF0000;stroke-width:0.0028;stroke-miterlimit:10;" cx="1129.624" cy="213.128" r="12.984"/>
	<circle style="fill:none;stroke:#FF0000;stroke-width:0.0028;stroke-miterlimit:10;" cx="1177.517" cy="258.605" r="12.983"/>
	<circle style="fill:none;stroke:#FF0000;stroke-width:0.0028;stroke-miterlimit:10;" cx="1222.241" cy="303.254" r="12.983"/>
	<path style="fill:none;stroke:#FF0000;stroke-width:0.0028;stroke-miterlimit:10;" d="M1093.839,536.349
		c0,5.376-4.362,9.737-9.737,9.737c-5.38,0-9.738-4.361-9.738-9.737c0-5.38,4.358-9.737,9.738-9.737
		C1089.477,526.611,1093.839,530.969,1093.839,536.349z"/>
	<circle style="fill:none;stroke:#FF0000;stroke-width:0.0028;stroke-miterlimit:10;" cx="1130.951" cy="489.605" r="9.738"/>
	<circle style="fill:none;stroke:#FF0000;stroke-width:0.0028;stroke-miterlimit:10;" cx="1175.924" cy="443.949" r="9.738"/>
	<circle style="fill:none;stroke:#FF0000;stroke-width:0.0028;stroke-miterlimit:10;" cx="1220.51" cy="398.435" r="9.738"/>
	<circle style="fill:none;stroke:#FF0000;stroke-width:0.0028;stroke-miterlimit:10;" cx="1220.51" cy="258.21" r="9.738"/>
	<circle style="fill:none;stroke:#FF0000;stroke-width:0.0028;stroke-miterlimit:10;" cx="1176.002" cy="213.272" r="9.738"/>
	<circle style="fill:none;stroke:#FF0000;stroke-width:0.0028;stroke-miterlimit:10;" cx="1129.624" cy="167.9" r="9.738"/>
	<path style="fill:none;stroke:#FF0000;stroke-width:0.0028;stroke-miterlimit:10;" d="M1093.839,121.446
		c0,5.377-4.362,9.738-9.737,9.738c-5.38,0-9.738-4.36-9.738-9.738c0-5.378,4.358-9.738,9.738-9.738
		C1089.477,111.708,1093.839,116.068,1093.839,121.446z"/>
	<circle style="fill:none;stroke:#FF0000;stroke-width:0.0028;stroke-miterlimit:10;" cx="1082.369" cy="73.984" r="8.367"/>
	<circle style="fill:none;stroke:#FF0000;stroke-width:0.0028;stroke-miterlimit:10;" cx="1129.624" cy="121.446" r="8.367"/>
	<circle style="fill:none;stroke:#FF0000;stroke-width:0.0028;stroke-miterlimit:10;" cx="1174.271" cy="166.53" r="8.367"/>
	<circle style="fill:none;stroke:#FF0000;stroke-width:0.0028;stroke-miterlimit:10;" cx="1220.51" cy="213.128" r="8.367"/>
	<circle style="fill:none;stroke:#FF0000;stroke-width:0.0028;stroke-miterlimit:10;" cx="1219.567" cy="532.178" r="12.983"/>
	<circle style="fill:none;stroke:#FF0000;stroke-width:0.0028;stroke-miterlimit:10;" cx="1219.567" cy="485.508" r="9.737"/>
	<circle style="fill:none;stroke:#FF0000;stroke-width:0.0028;stroke-miterlimit:10;" cx="1173.59" cy="531.24" r="9.738"/>
	<circle style="fill:none;stroke:#FF0000;stroke-width:0.0028;stroke-miterlimit:10;" cx="1129.374" cy="532.178" r="8.368"/>
	<circle style="fill:none;stroke:#FF0000;stroke-width:0.0028;stroke-miterlimit:10;" cx="1174.96" cy="485.508" r="8.368"/>
	<circle style="fill:none;stroke:#FF0000;stroke-width:0.0028;stroke-miterlimit:10;" cx="1218.349" cy="442.352" r="8.368"/>
	<circle style="fill:none;stroke:#FF0000;stroke-width:0.0028;stroke-miterlimit:10;" cx="1222.237" cy="78.469" r="16.7"/>
	<circle style="fill:none;stroke:#FF0000;stroke-width:0.0028;stroke-miterlimit:10;" cx="1222.237" cy="124.452" r="12.984"/>
	<circle style="fill:none;stroke:#FF0000;stroke-width:0.0028;stroke-miterlimit:10;" cx="1176.259" cy="78.937" r="12.984"/>
	<path style="fill:none;stroke:#FF0000;stroke-width:0.0028;stroke-miterlimit:10;" d="M1233.706,170.108
		c0,5.377-4.362,9.738-9.737,9.738c-5.381,0-9.738-4.36-9.738-9.738c0-5.378,4.357-9.738,9.738-9.738
		C1229.344,160.37,1233.706,164.73,1233.706,170.108z"/>
	<circle style="fill:none;stroke:#FF0000;stroke-width:0.0028;stroke-miterlimit:10;" cx="1177.991" cy="124.452" r="9.738"/>
	<circle style="fill:none;stroke:#FF0000;stroke-width:0.0028;stroke-miterlimit:10;" cx="1132.405" cy="78.937" r="9.737"/>
	<circle style="fill:none;stroke:#FF0000;stroke-width:0.0028;stroke-miterlimit:10;" cx="1082.369" cy="400.166" r="14.174"/>
</g>
</svg>
